<?xml version="1.0" encoding="UTF-8"?>
<svg id="Layer_1" data-name="Layer 1" xmlns="http://www.w3.org/2000/svg" viewBox="0 0 1280 853">
  <defs>
    <style>
      .cls-1 {
        fill: #32f5f5;
      }

      .cls-1, .cls-3, .cls-4, .cls-5, .cls-6, .cls-7, .cls-8, .cls-9, .cls-10, .cls-11, .cls-12, .cls-13, .cls-14, .cls-15, .cls-16, .cls-17, .cls-18, .cls-19, .cls-20, .cls-21, .cls-22, .cls-23, .cls-24, .cls-25 {
        stroke-width: 0px;
      }


      .cls-3 {
        fill: #1ee8f3;
      }

      .cls-4 {
        fill: #02728a;
      }

      .cls-5 {
        fill: #28f5f7;
      }

      .cls-6 {
        fill: #0ab2cd;
      }

      .cls-7 {
        fill: #049db4;
      }

      .cls-8 {
        fill: #0191aa;
      }

      .cls-9 {
        fill: #09afc3;
      }

      .cls-10 {
        fill: #1feef8;
      }

      .cls-11 {
        fill: #0abfd1;
      }

      .cls-12 {
        fill: #010304;
      }

      .cls-13 {
        fill: #0bc8da;
      }

      .cls-14 {
        fill: #2ef7f7;
      }

      .cls-15 {
        fill: #02a6bf;
      }

      .cls-16 {
        fill: #021a27;
      }

      .cls-17 {
        fill: #0dcfe0;
      }

      .cls-18 {
        fill: #0bc6d8;
      }

      .cls-19 {
        fill: #28fafa;
      }

      .cls-20 {
        fill: #09a3bf;
      }

      .cls-21 {
        fill: #0288a0;
      }

      .cls-22 {
        fill: #0296ae;
      }

      .cls-23 {
        fill: #2ef8f8;
      }

      .cls-24 {
        fill: #021a26;
      }

      .cls-25 {
        fill: #21f3fb;
      }
    </style>
  </defs>

  <path class="cls-14" d="M354.97,259.91c-14.64,24.39-35.89,38.99-64.1,43.42-40.81,6.41-78.93-14.12-97.16-48.16-20.54-38.35-9.88-84.03,24.61-110.82,48.89-37.98,121.92-17.41,143.22,40.38,6.02,16.33,7.24,33.02,3.05,50-.61,2.31-1.22,4.62-1.83,6.93,0,0-.03.14-.03.14-.42,1.35-.84,2.7-1.26,4.05-.21,1.28-.42,2.57-.63,3.85-1.43,2.53-2.86,5.06-4.3,7.59,0,0-.13.31-.13.31-.21.34-.41.69-.62,1.04,0,0-.13.18-.13.18-.23.37-.46.73-.69,1.1ZM275.78,281.83c38.18.13,68.85-29.8,68.95-67.31.1-37.94-30.98-68.58-69.67-68.65-39.25-.07-69.22,31.79-68.66,67.48.61,38.56,30.11,68.34,69.38,68.48Z"/>
  <path class="cls-14" d="M799.51,210.25c10.55-37.4,46.34-60.98,85.74-56.84,34.29,3.61,58.34,21.32,70.72,53.12,14.18,36.43.52,77.29-36.69,98.01-8.33,4.64-17.09,8.13-26.82,8.47-4.04.54-8.08,1.09-12.12,1.63-12.11.56-23.89-1.41-34.82-6.49-26.53-12.33-43.59-32.28-48.08-61.86.09-12.05-1.26-24.19,2.07-36.05ZM878.8,291.65c33.9-.13,59.56-25.43,59.35-58.66-.19-30.55-24.67-58.82-61.12-58.35-31.32.4-57.56,26.42-57.58,57.67-.02,33.22,26.23,59.46,59.35,59.33Z"/>
  <path class="cls-14" d="M383.67,542.52c20.48,8.64,36.01,22.87,46.01,42.57,22.06,43.46,3.65,93.97-37.97,115.39-39.64,20.4-86.39,11.34-116.51-21.74-26.37-28.96-29.16-73.89-6.73-106.11,8.99-12.91,20.16-23.18,34.39-30.01,1.54,2.06,3.08,4.11,4.82,6.44-1.69.78-3.07,1.42-4.78,2.22,3.11,3.08,6.26,4.64,9.78,1.92,4.83-3.73,14.21-4.07,18.18-.64,1.87-.54,3.46-1.4,5.04-1.36,2.39.06,4.8.6,7.14,1.19,5.09,1.29,10.79-3.37,15.63,1.62.4.41,2.78-1.18,4.27-1.75,1.45-.55,2.97-1.45,4.41-1.37,2.38.14,4.74.86,7.06,1.51,3.01.84,6.64,1.1,7.23,6.15-2.69-.78-4.5-1.31-6.31-1.84-.3.34-.6.68-.9,1.03.9.88,1.66,2.27,2.72,2.56,3.74,1.03,7.51,1.3,10.54-1.94h0c2.84.69,5.67,1.39,7.71,1.9.19,2.47.32,4.14.45,5.82,1.4-.89,2.8-1.79,4.99-3.19-.35,4.58-.67,8.93-1.01,13.36,1.78,1.23,3.84,2.66,5.89,4.09.31-.43.62-.86.93-1.29-.57-1.3-1.14-2.6-1.66-3.8,1.27-.9,2.39-1.7,2.87-2.04-.67-2.37-1.14-4.05-1.62-5.73,1.59.56,3.18,1.13,4.77,1.68,1.03.36,2.07.69,3.11,1.04l1.11-1.58c-4.47-4.71-8.95-9.42-14.16-14.92-.23,2.08-.32,2.87-.41,3.66h0c-5.85-1.8-11.7-3.6-17.55-5.41.13-.6.27-1.2.4-1.79,4.04.73,8.08,1.46,12.12,2.19.18-.43.36-.86.55-1.29-1.78-.91-3.68-1.63-5.3-2.76-2.52-1.77-4.85-3.82-7.25-5.76ZM346.77,689.4c13.21-.01,22.26-2.18,34.02-8.15,29.75-15.11,43.3-51.39,31.05-81.56-16.9-41.62-69.32-58.56-105.95-32.83-26.11,18.34-33.63,45.17-26.24,72.78,7.97,29.8,36.42,49.79,67.12,49.76ZM382.86,563.23c3.33,1.94,6.03,3.52,8.73,5.1.2-.44.41-.88.61-1.31-2.43-2.34-4.13-6.23-9.34-3.79ZM318.79,556.61c-.84-.81-1.68-1.61-2.52-2.42-1.21,1.26-2.43,2.53-3.64,3.79.79.75,1.58,1.51,2.36,2.26,1.27-1.21,2.53-2.42,3.8-3.63ZM321.52,553.55c-.28.54-.55,1.08-.83,1.62,1.07.37,2.14.74,3.2,1.11l.5-1.18c-.96-.52-1.92-1.03-2.87-1.55ZM371.3,555.07c-.28-.12-.55-.24-.83-.36-.12.28-.39.62-.31.82.08.2.51.26.79.38.12-.28.24-.55.36-.83Z"/>
  <path class="cls-18" d="M848.26,473.24c-14.39,14.09-28.69,28.26-43.25,42.17-2.69,2.57-3.77,5.02-3.7,8.62.17,8.79.03,17.58-.11,26.37-.03,1.61-.63,3.21-.97,4.82,0,0-.11-.09-.11-.09.05-2.91.11-5.82.16-8.74,0-.68,0-1.37,0-2.05,0-4.64,0-9.27-.01-13.91-.02-3.4-.05-6.8-.07-10.2.06-3.27.11-6.55.17-9.82.08-.14.15-.28.23-.42-.08.14-.15.28-.23.42-1.22.4-2.76.45-3.6,1.24-7.87,7.5-15.62,15.12-23.4,22.71-15.35,14.98-30.7,29.97-46.05,44.95-.96.34-1.92.67-2.88,1.01-7.22.33-14.45.74-21.68.92-1.05.03-2.13-.97-3.19-1.49.73-1.12,1.39-2.29,2.2-3.35.82-1.08,1.78-2.05,2.68-3.07,8.94-8.1,18.32-15.78,26.7-24.42,8.01-8.26,17.22-13.87,27.93-17.71,5.78-2.07,11.9-5.32,12.93-11.9,1.5-9.56,1.5-19.35,2.14-29.04,1.21-1.9,2.42-3.8,3.63-5.7,10.23-9.36,20.46-18.71,30.69-28.07.75-.3,1.69-.42,2.22-.94,5.79-5.65,11.51-11.38,17.27-17.05,2.08-2.05,4.24-4.02,6.36-6.02.67,1.27,1.73,2.49,1.94,3.83.33,2.16.09,4.4.09,6.83,2.15-1.17,3.53-1.93,5.41-2.95-1.39,3.38-2.4,5.83-3.41,8.27h0c-2.62.93-5.31,1.69-7.84,2.81-1.88.83-3.58,2.09-5.34,3.2-1.55.98-4.52,2.61-4.39,2.92,1.83,4.34-.92,7.18-3.82,10.33,2.17.55,3.53.9,3.84.97,0,2.9,0,5.23,0,7.55-5.06,5.18-9.88,10.62-15.25,15.45-4.77,4.3-5.28,9.38-4.65,16.33,5.59-5.32,10.47-9.89,15.28-14.54,15.94-15.39,31.87-30.79,47.8-46.19.39-.37.78-.73,1.17-1.1l-.07.05c.37-.33.74-.66,1.11-.99l-.06.07c.36-.35.73-.69,1.09-1.04l-.07.06c.35-.35.7-.71,1.06-1.06l-.06.07c.36-.35.72-.7,1.08-1.05l-.07.05c.36-.35.71-.7,1.07-1.05l-.05.07c.34-.39.69-.78,1.03-1.18.29-.29.57-.58.86-.86.4-.33.8-.66,1.19-.99l-.05.04c.36-.35.71-.69,1.07-1.04.31-.31.62-.62.93-.94,1.02-1,2.04-2,3.07-2.99h0c4.12,2.63,1.53,6.12,1.21,9.31,0,0,.1-.06.1-.07-.37.34-.74.67-1.11,1.01,0,0,.06-.08.06-.08-.35.37-.69.74-1.03,1.11,0,0,.07-.06.07-.06-.35.36-.7.72-1.04,1.08,0,0,.06-.07.05-.07-.37.34-.74.68-1.11,1.03,0,0,.07-.05.07-.05-.35.35-.71.69-1.06,1.04,0,0,.05-.06.05-.06-.37.33-.74.66-1.11.99,0,0,.04-.03.04-.04-.34.35-.68.71-1.02,1.06,0,0,.04-.05.04-.05-.34.36-.68.73-1.02,1.09,0,0,.08-.06.08-.06-.36.35-.71.7-1.06,1.06,0,0,.05-.07.05-.07-.37.33-.73.66-1.1,1,0,0,.04-.03.04-.03-.36.33-.71.66-1.07.99,0,0,.03-.03.03-.03-.34.36-.67.72-1.01,1.07,0,0,.06-.03.06-.03-1.02.99-2.05,1.98-3.07,2.96,0,0,0-.01,0-.01-2.36,2.3-4.72,4.59-7.08,6.89,0,0-.05.03-.05.03-3,2.93-6.01,5.87-9.01,8.8Z"/>
  <path class="cls-17" d="M494.92,563.34c-.27-.22-.4-.51-.38-.86-.36-.67-.72-1.35-1.08-2.02,0,0,.02,0,.02,0-.34-1-.68-2-1.02-3,0,0,0,0,0,0-.58-2.04-1.16-4.08-1.74-6.13,0,0-.01-.11-.01-.11.05-15.6.11-31.19.16-46.79.87-1.4,1.75-2.8,2.88-4.63,2.75,1.59,6.38,2.81,8.73,5.25,4.37,4.54,9.28,8.97,10.01,15.97.11,1.08,1.35,2.13,2.23,3.03,11.45,11.53,25.87,18.14,40.53,24.3,6,2.52,6.08,2.32,6.46-4.09,3.64,3.66,7.28,7.33,10.93,10.99.34.35.69.69,1.03,1.04.99.99,1.97,1.99,2.96,2.98-.26,1.63-1.3,3.73-.66,4.82,4.41,7.43,9.17,14.65,13.81,21.94-3.99,2.26-4.07,2.19-7.27-.75-1.77-1.63-3.64-4.09-5.67-4.31-6.38-.7-12.87-.47-19.31-.68-8.6-.28-17.24-1.35-25.77-.77-9.49.65-17.95-.84-25.61-6.56-.66-.49-1.86-.25-2.81-.35,0,0,.07.02.07.02-1.6-2.09-3.19-4.17-4.79-6.25-.44.11-.88.23-1.33.34,0,0,0-.04,0-.04-.28-.4-.56-.81-.84-1.21,0,0,.02.03.02.03-.28-.37-.56-.74-.84-1.11,0,0-.05-.05-.05-.05-.22-.33-.44-.67-.66-1Z"/>
  <path class="cls-19" d="M930.31,372.46c.33.05.62.2.86.43.7.55,1.41,1.09,2.11,1.64,0,0,.04.02.04.02.35.29.71.58,1.06.88,0,0,.03.04.03.04.33.31.67.61,1,.92,11.74,11.23,14.07,27.26,5.84,40.2-8.43,13.26-24.76,18.77-39.73,13.41-1.71-.61-3.42-1.23-5.13-1.85-2.66-2.21-5.32-4.43-7.99-6.65,0,0-.06-.13-.06-.13-.24-.3-.49-.6-.73-.9l-.23-.2c-.21-.28-.42-.55-.62-.83-.89-1.23-1.77-2.47-2.66-3.7-3.38-7.39-4.64-15.13-3.93-23.21,1.64-7.29,4.7-13.75,10.86-18.37.36-.24.73-.49,1.09-.73l.05-.03c.39-.25.78-.5,1.17-.75,0,0,.04-.02.04-.02.33-.21.67-.42,1-.63.06-.2.19-.32.39-.36,3.66-1.06,7.26-2.67,10.98-3.04,5.13-.51,10.35-.08,15.54-.05,0,0,.02,0,.02,0,.96.34,1.91.67,2.87,1.01,0,0,.19.1.19.1,1.98.94,3.96,1.87,5.94,2.81Z"/>
  <path class="cls-11" d="M503.33,572.61c.95.1,2.16-.14,2.81.35,7.66,5.72,16.12,7.21,25.61,6.56,8.53-.58,17.17.49,25.77.77,6.44.21,12.92-.02,19.31.68,2.03.22,3.9,2.69,5.67,4.31,3.2,2.94,3.28,3.01,7.27.75-4.64-7.28-9.4-14.5-13.81-21.94-.65-1.09.4-3.19.66-4.82,4.94,2.72,9.88,5.45,14.82,8.17.99.69,1.98,1.39,2.97,2.08,5.02,4.28,10.04,8.55,15.05,12.83,1.36,1.17,2.69,2.39,4.1,3.52,9.82,7.84,19.65,15.65,29.47,23.49,2.54,2.02,4.57,2.1,7.4-.17,5.76-4.62,12.01-8.64,18.05-12.91.56.22,1.26.77,1.67.6,4.47-1.79,8.89-3.7,13.32-5.57l4.99-.03c4.42-.86,8.84-1.71,13.37-2.59-.5,1.7-.92,3.15-1.35,4.61,0,0-.02.04-.02.04-.33.31-.67.62-1,.92,0,0-.07.05-.07.05-.31.31-.63.61-.94.92,0,0-.05.07-.05.07-.65.65-1.31,1.3-1.96,1.95,0,0-.03.05-.03.05-.98,1.01-1.96,2.02-2.93,3.03,0,0,0,0,0,0-1.01.97-2.02,1.94-3.03,2.91,0,0-.04.06-.04.06-.3.33-.61.67-.91,1,0,0-.05.03-.05.03-.32.3-.65.61-.97.91-8.74,8.26-16.81,17.43-26.41,24.53-10.31,7.62-27.98,5.69-37.77-3.12-14.67-13.2-28.74-27.06-43.3-40.38-2.2-2.01-5.66-3.55-8.62-3.71-15.94-.86-31.9-1.13-47.85-1.78-7.93-.33-15.32-2.36-21.2-8.17Z"/>
  <path class="cls-19" d="M387.7,558.35c-3.03,3.24-6.8,2.97-10.54,1.94-1.06-.29-1.82-1.68-2.72-2.56.3-.34.6-.68.9-1.03,1.81.53,3.62,1.05,6.31,1.84-.59-5.04-4.22-5.31-7.23-6.15-2.32-.65-4.68-1.37-7.06-1.51-1.44-.09-2.96.82-4.41,1.37-1.49.57-3.87,2.16-4.27,1.75-4.85-4.99-10.54-.33-15.63-1.62-2.34-.59-4.75-1.13-7.14-1.19-1.58-.04-3.18.82-5.04,1.36-3.98-3.42-13.36-3.08-18.18.64-3.53,2.72-6.67,1.16-9.78-1.92,1.71-.79,3.09-1.43,4.78-2.22-1.74-2.32-3.28-4.38-4.82-6.44,8.19-2.91,16.27-6.23,24.61-8.58,4.33-1.22,8.65-1.61,11.27-5.92.55-.9,1.81-1.37,2.74-2.04.39-.25.79-.5,1.18-.75,0,0,.05-.03.05-.03.38-.22.77-.44,1.16-.66,0,0,.23-.07.23-.07,1.89-.73,3.77-1.46,5.66-2.19,0,0,.02,0,.02,0,3.65.01,7.3.03,10.94.04,3.66,2,7.32,4,10.98,5.99,1.07,3.03,2.14,6.06,3.21,9.09.26.76.53,1.51.79,2.26.36.16.71.33,1.07.49,2.3.75,4.61,1.5,6.91,2.24,2.41,1.93,4.73,3.99,7.25,5.76,1.62,1.14,3.52,1.86,5.3,2.76-.18.43-.36.86-.55,1.29-4.04-.73-8.08-1.46-12.12-2.19-.13.6-.27,1.2-.4,1.79,5.85,1.8,11.7,3.6,17.55,5.41.24.88.48,1.75.71,2.63.35-.19.71-.38,1.06-.57-.59-.69-1.18-1.38-1.77-2.06.09-.79.18-1.58.41-3.66,5.21,5.49,9.69,10.2,14.16,14.92l-1.11,1.58c-1.04-.34-2.08-.68-3.11-1.04-1.59-.55-3.18-1.12-4.77-1.68.47,1.68.95,3.36,1.62,5.73-.47.34-1.6,1.14-2.87,2.04.52,1.2,1.09,2.5,1.66,3.8-.31.43-.62.86-.93,1.29-2.06-1.43-4.11-2.86-5.89-4.09.33-4.42.66-8.77,1.01-13.36-2.19,1.4-3.59,2.29-4.99,3.19-.13-1.68-.26-3.36-.45-5.82-2.04-.5-4.88-1.2-7.71-1.9-.71-.59-1.42-1.19-2.12-1.78-.16.42-.31.84-.47,1.27.86.17,1.73.35,2.59.52ZM310.02,545.06c.26.56.53,1.11.79,1.67,3.23-1.61,6.46-3.22,9.68-4.82-.24-.52-.49-1.03-.73-1.55-3.09,1.92-7.64.68-9.75,4.7ZM326.14,547.91c0-.33,0-.66,0-.99h-4.75c0,.33,0,.66,0,.99h4.74Z"/>
  <path class="cls-20" d="M360.7,522.44c-3.65-.01-7.3-.03-10.94-.04,1.13-1.56,3.02-3.01,3.29-4.7,4.33-27.39,8.49-54.8,12.61-82.23,5.13-34.15,10.15-68.32,15.29-102.47,1.83-12.15,3.87-24.27,5.82-36.4,6.31.04,12.62.08,18.92.12-3.58,1.01-7.16,2.02-11.29,3.18-.39,1.63-1.08,3.85-1.43,6.12-5.8,38.19-11.59,76.38-17.3,114.58-3.41,22.79-6.69,45.61-10.03,68.41-1.63,11.15-3.29,22.29-4.93,33.43Z"/>
  <path class="cls-6" d="M441.65,264.81c.51-.11,1.01-.21,1.52-.32,1.51-.54,3.02-1.08,4.53-1.62,0,0,.26-.05.26-.05,1.91-.64,3.82-1.28,5.74-1.92,0,0,.29-.06.29-.06,1.9-.65,3.8-1.3,5.7-1.95,0,0,.25-.06.25-.06,1.58-.58,3.15-1.16,4.73-1.74.86-.18,1.72-.37,2.58-.55,1.46-.57,2.91-1.14,4.37-1.72.26-.19.55-.26.87-.19,1.73-.59,3.45-1.18,5.18-1.78,0,0,.2-.04.2-.04.92-.28,1.83-.56,2.75-.84,0,0,.27-.17.27-.17.92-.31,1.84-.62,2.77-.94,9.41-3.2,18.81-6.43,28.23-9.6,19-6.4,38-12.81,57.03-19.14,25.01-8.31,50.04-16.56,75.08-24.8,1.09-.36,2.27-.42,3.41-.63,2.29-.34,4.57-.69,6.86-1.03.09,1.02.18,2.04.27,3.06-.36,1.28-.71,2.56-1.07,3.84-1.37.59-2.71,1.29-4.12,1.75-25.47,8.39-50.95,16.77-76.44,25.12-31.81,10.42-63.63,20.82-95.45,31.23-1.94.67-3.88,1.33-5.81,2h-.02c-.99.33-1.98.65-2.97.98,0,0-.04.02-.04.02-.99.34-1.97.68-2.96,1.02-.73.31-1.45.63-2.18.94l-3.8,1.1h.02c-1.01.3-2.01.62-3.02.93,0,0-.06.03-.06.03-.99.3-1.99.6-2.98.9l-.11.02c-.95.33-1.9.66-2.85.98l-.12.06c-1.3,0-2.6.01-3.9.02-.31-.51-.62-1.01-.94-1.52-.2.2-.39.39-.59.59.51.31,1.01.62,1.52.93-1.86.48-3.72.96-5.59,1.43h.19c-3.56-1.51-3.67,2.45-5.6,3.52h-.03c-.59.2-1.17.38-1.76.57-.39.14-.79.28-1.18.42-1.27-5.23,2.35-7.42,5.98-9.6l.12-.24s.27.03.27.03c.87-.34,1.73-.68,2.6-1.01Z"/>
  <path class="cls-20" d="M628.52,661.18c-.08-6.22-4.08-7.92-9.39-9.71-43.71-14.71-87.29-29.79-130.9-44.78-15.52-5.33-31.04-10.71-46.55-16.09-2.33-.81-5.26-1.39-3.94-4.97,1.22-3.33,3.62-3.72,6.85-2.59,31.31,10.97,62.61,21.95,93.99,32.72,26.34,9.04,52.77,17.83,79.19,26.64,4.49,1.5,9.13,2.56,13.7,3.83-.99,4.98-1.97,9.97-2.96,14.95Z"/>
  <path class="cls-19" d="M405.68,296.72c-6.31-.04-12.62-.08-18.92-.12-2.65-2.03-5.31-4.06-7.96-6.08-.69-.95-1.37-1.91-2.06-2.86,0,0,0-.02,0-.02-.16-.34-.31-.69-.47-1.03-.21-.07-.32-.21-.35-.43-.37-.84-.75-1.69-1.12-2.53,0,0-.02-.07-.02-.07-1.63-8.15-1.51-16.02,3.74-23.06.14-.31.35-.55.63-.73.23-.2.47-.4.7-.6.08-.18.22-.27.42-.27,1.11-.74,2.23-1.48,3.34-2.22,0,0,.21-.06.21-.06.29-.17.59-.35.88-.52,9.19-5.84,26.02-3.46,32.21,7.41.67,1.32,1.34,2.63,2,3.95,0,0,.02.04.02.04,2.25,9.7.13,18.2-6.97,25.33l-.13.1c-.34.24-.68.48-1.03.72l-.08.06c-.35.26-.7.52-1.05.78-1.32.74-2.65,1.48-3.97,2.22Z"/>
  <path class="cls-9" d="M490.86,504.44c-.05,15.6-.11,31.19-.16,46.79-.34-2.42-.96-4.84-.97-7.26-.08-13.91.22-27.82-.16-41.72-.09-3.08-1.71-6.73-3.81-9.04-6.77-7.43-14.09-14.35-21.2-21.47-.33-.41-.66-.82-.98-1.23,0,0,.03.03.03.03-.35-.34-.69-.68-1.04-1.02,0,0,.04.04.04.04-.34-.35-.69-.7-1.03-1.05,0,0,.04.03.04.03-.34-.34-.69-.69-1.03-1.03,0,0,.03.04.03.04-.33-.35-.66-.7-.99-1.05,0,0,0,0,0,0-.31-.34-.63-.68-.94-1.01,0,0-.04-.07-.04-.07,0-1.03-.02-2.06-.03-3.1,6.01-5.61,12.02-11.22,18.02-16.84.18,7.71,1.77,15.06,6.32,21.43.87,1.22,2.91,2.57,4.19,2.39,5.45-.8,9.12,1.62,12.4,5.51,1.59,1.88,3.39,3.66,5.37,5.13,4.01,2.98,3.69,7.95-.38,10.79-1.77,1.24-2.65,3.76-3.93,5.7-3.19-.41-6.38-.82-9.75-1.25v9.26Z"/>
  <path class="cls-9" d="M799.51,210.25c-3.33,11.87-1.98,24-2.07,36.05-.59-8.03-1.17-16.06-1.78-24.36-12.96-2.4-26.14-4.84-39.33-7.28-17.62-3.26-35.22-6.61-52.86-9.72-7.97-1.41-16.03-2.34-24.05-3.48.69-3.52,1.38-7.05,2.08-10.57,1.76,1.02,3.41,2.61,5.3,2.97,19.53,3.75,39.09,7.36,58.67,10.88,16.13,2.9,32.32,5.52,48.43,8.55,3.21.6,4.53-.6,5.62-3.06Z"/>
  <path class="cls-5" d="M628.52,661.18c.99-4.98,1.97-9.97,2.96-14.95,0,0,.02-.01.02-.01.32-.32.65-.63.97-.95,0,0,.04-.06.04-.06.33-.3.67-.61,1-.91,0,0,.06-.04.06-.04.32-.29.64-.58.96-.87,0,0,.09-.1.09-.1.33-.25.65-.51.98-.76,0,0,.22-.11.22-.11,1.24-.64,2.49-1.28,3.73-1.92,4.6.03,9.2.05,13.79.08,1.61.93,3.23,1.86,4.84,2.79,0,0,.23.22.23.22.31.24.62.48.93.72,0,0,.09.06.09.06,1.76,2.71,3.51,5.43,5.27,8.14.06.5.11,1,.17,1.5-.02,1.79-.04,3.59-.07,5.39-1.81,8.34-7.15,13.19-15.97,14.51-8.17,1.22-14.98-2.22-19.36-9.78-.32-.96-.64-1.91-.96-2.87,0,0-.01-.06-.01-.06Z"/>
  <path class="cls-20" d="M458.6,462.31c0,1.03.02,2.07.03,3.1-2.14-1.74-3.7-1.57-5.92.49-21.97,20.36-44.1,40.55-66.17,60.8-3.91,3.58-7.77,7.22-11.65,10.83-1.07-3.03-2.14-6.06-3.21-9.09,7.22-6.3,14.54-12.47,21.62-18.91,16.29-14.82,32.37-29.86,48.72-44.6,4.54-4.09,9.34-7.6,4.74-14.46,1.62,2,3.24,4,4.86,6,1.59,2.83,2.7,6.23,6.97,5.86Z"/>
  <path class="cls-20" d="M411.95,292.84c7.1-7.13,9.23-15.63,6.97-25.33,1.46,3.58,3.67,3.93,7.17,2.42,4.01-1.73,8.37-2.64,12.57-3.9-3.63,2.18-7.25,4.37-5.98,9.6-2.75,1.03-5.61,1.83-8.21,3.16-1.72.88-3.78,2.28-4.31,3.9-.38,1.17,1.14,3.57,2.45,4.58,19.41,15,38.93,29.87,58.44,44.73,2.4,1.83,4.96,3.45,7.81,5.41.61-6.21,1.13-11.55,1.66-16.88-.3,6.35-.6,12.69-.9,19.04.32,2.71.64,5.42.96,8.13.02,6.88.15,13.76-.03,20.63-.05,1.76-1.13,3.49-1.73,5.23.04-.82.04-1.65.13-2.47,1.35-12.6,3.6-25.52-11.75-32-.14-.06-.24-.23-.37-.33-19.81-15-39.6-30.04-59.51-44.92-1.31-.98-3.56-.7-5.37-1Z"/>
  <path class="cls-6" d="M669.47,637.24c14.3-14.33,28.61-28.67,42.91-43-.46,1.13-.93,2.26-1.02,2.49,1.86,1.78,3.29,3.15,4.73,4.53-11.43,11.56-22.86,23.12-34.33,34.64-.66.66-1.75.89-2.63,1.32-1.52,1.71-3.04,3.43-4.56,5.14,0,0,.02-.02.02-.02-1.14.46-2.28.93-4.19,1.7-.32-2.39-.62-4.6-.92-6.8Z"/>
  <path class="cls-5" d="M681.49,190.9c-.69,3.52-1.38,7.05-2.08,10.57-2.35,1.77-4.7,3.53-7.04,5.29-7.22.16-14.2-.23-17.84-8.03-.09-1.02-.18-2.04-.27-3.06.34-1.69.67-3.37,1.01-5.06.37-.6.74-1.21,1.11-1.81,0,0,.31-.19.31-.19l-.02-.36s.17-.31.17-.31c.48-.45.96-.9,1.43-1.34.28-.23.57-.46.85-.69,0,0,.3-.01.3-.01l.12-.28c8.2-4.58,15.37-3.42,20.85,3.35.33.57.67,1.14,1,1.72l.1.2Z"/>
  <path class="cls-7" d="M921.29,368.54c-5.18-.03-10.41-.46-15.54.05-3.72.37-7.32,1.98-10.98,3.04,2.12-1.5,2.55-3.23,1.64-5.83-2.23-6.42-4.05-12.97-6.08-19.45-3.31-10.57-6.66-21.14-10-31.7,4.04-.54,8.08-1.09,12.12-1.63-1.11.63-2.21,1.25-3.5,1.99,5.29,17.23,10.53,34.3,15.62,50.9,5.79.92,11.25,1.78,16.71,2.64Z"/>
  <path class="cls-9" d="M700.48,593.3c.42-1.45.85-2.91,1.35-4.61-4.53.88-8.95,1.73-13.37,2.59.25-.91.37-1.89.78-2.73.89-1.8,1.94-3.53,2.92-5.29-2.22-.65-4.43-1.37-6.68-1.92-.93-.22-1.95-.05-2.92-.06.3-1.33.59-2.65.89-3.98,1.67-1.66,3.34-3.33,5.01-4.99,2.23.63,4.45,1.7,6.7,1.8,3.08.13,6.2-.49,9.3-.78-.9,1.02-1.86,1.99-2.68,3.07-.81,1.06-1.47,2.23-2.2,3.35,1.06.52,2.14,1.52,3.19,1.49,7.23-.19,14.45-.59,21.68-.92-.91,1.69-1.81,3.39-2.72,5.08.13-.95.25-1.9.36-2.72-7.68-2.27-12.77,1.41-17.3,6.66-1.27,1.47-2.87,2.64-4.32,3.95Z"/>
  <path class="cls-7" d="M378.51,260.52c-5.25,7.04-5.37,14.9-3.74,23.06-.64-3.77-1.09-7.59-1.98-11.3-.48-2-1.18-4.45-2.65-5.62-4.3-3.42-9.04-6.29-13.6-9.38,1.43-2.53,2.86-5.06,4.3-7.59,4.29,3.04,8.53,6.16,12.92,9.06,1.38.91,3.16,1.2,4.76,1.77Z"/>
  <path class="cls-17" d="M721.74,585.39c.91-1.69,1.81-3.39,2.72-5.08.96-.34,1.92-.67,2.88-1.01,3.03.36,6.07.73,9.1,1.09-.32.67-.64,1.33-.96,2,0,0,.05-.02.05-.02-.71.59-1.42,1.17-2.14,1.76,0,0-.2.12-.2.12-.6.63-1.2,1.26-1.8,1.89,0,0-.21.15-.21.15-.25.23-.49.45-.74.68,0,0-.18.3-.18.3-.29.28-.58.55-.87.83,0,0-.26.17-.26.17-.24.23-.48.47-.72.7,0,0-.21.29-.21.29-.28.25-.55.51-.83.76l-.11.24s-.27-.02-.27-.02c-.31.15-.53.39-.63.72,0,0-.15.28-.15.28-.27.29-.55.57-.82.86,0,0-.26.16-.26.16-.31.05-.53.22-.67.5.03.28-.1.45-.37.49-.24.24-.47.48-.71.71,0,0-.28.23-.28.23-.93.91-1.86,1.81-2.79,2.72l-.16.28c-.62.54-1.23,1.08-1.85,1.62v.29s-.25.13-.25.13c-.31.12-.5.34-.58.66-.46.45-.91.91-1.37,1.36-1.44-1.37-2.87-2.75-4.73-4.53.09-.23.56-1.36,1.02-2.49,0,0,0,0,0,0,.74-.77,1.49-1.55,2.23-2.32-.04-.31.1-.49.4-.56.22-.11.39-.27.5-.49.05-.31.23-.44.54-.38.43-.49.85-.99,1.28-1.48l4.4-3.62Z"/>
  <path class="cls-9" d="M888.41,421.5c2.66,2.22,5.32,4.43,7.99,6.65-2.84,2.36-5.71,4.69-8.5,7.1-2.84,2.46-5.61,5-8.41,7.51.31-3.19,2.91-6.69-1.21-9.3,3.38-3.98,6.76-7.97,10.14-11.95Z"/>
  <path class="cls-7" d="M669.47,637.24c.3,2.2.6,4.4.92,6.8,1.91-.78,3.05-1.24,4.19-1.7-3.29,3.39-6.57,6.77-9.86,10.16-1.76-2.71-3.51-5.43-5.27-8.14,1.93-1.31,3.89-2.6,5.79-3.95,1.44-1.01,2.82-2.1,4.22-3.16Z"/>
  <path class="cls-18" d="M735.47,582.39c.32-.67.64-1.33.96-2,.61-.09,1.22-.18,1.83-.26,1.37.01,2.75.03,4.12.04.69,0,1.38-.01,2.08-.02,7.65-.28,15.29-.56,22.94-.84,1,0,2,0,3,0,2.96-.39,5.92-.77,8.89-1.16h0c-4.11.89-8.18,2.28-12.33,2.56-8.87.59-17.77.56-26.66.87-1.62.06-3.22.53-4.83.81Z"/>
  <path class="cls-18" d="M800.24,555.22c-2.25,4.4-4.51,8.81-6.76,13.21,0,0-.26-.27-.26-.27,1.05-2.6,2.11-5.2,3.16-7.8.66-1.34,1.32-2.67,1.98-4.01.59-.41,1.17-.82,1.76-1.22l.11.09Z"/>
  <path class="cls-9" d="M848.26,473.24c3-2.93,6.01-5.87,9.01-8.8-3.01,2.93-6.01,5.87-9.01,8.8Z"/>
  <path class="cls-18" d="M789.37,572.31c-3.36,1.95-6.73,3.9-10.09,5.85,0,0,0,0,0,0,3.33-2,6.66-3.99,9.99-5.99,0,0,.09.14.09.14Z"/>
  <path class="cls-9" d="M857.33,464.42c2.36-2.3,4.72-4.59,7.08-6.89-2.36,2.3-4.72,4.59-7.08,6.89Z"/>
  <path class="cls-22" d="M655.27,190.61c-.34,1.69-.67,3.37-1.01,5.06-2.29.34-4.57.69-6.86,1.03,2.62-2.03,5.24-4.06,7.87-6.09Z"/>
  <path class="cls-11" d="M498.61,566.38c1.6,2.08,3.19,4.17,4.79,6.25-1.59-1.45-3.18-2.89-4.78-4.34,0-.64,0-1.27-.01-1.91Z"/>
  <path class="cls-7" d="M674.56,642.35c1.52-1.71,3.04-3.43,4.56-5.14-1.52,1.71-3.04,3.43-4.56,5.14Z"/>
  <path class="cls-7" d="M362.76,241.65c.61-2.31,1.22-4.62,1.83-6.93-.61,2.31-1.22,4.62-1.83,6.93Z"/>
  <path class="cls-7" d="M930.31,372.46c-1.98-.94-3.96-1.87-5.94-2.81,1.98.94,3.96,1.87,5.94,2.81Z"/>
  <path class="cls-9" d="M490.71,551.34c.58,2.04,1.16,4.08,1.74,6.13-.58-2.04-1.16-4.08-1.74-6.13Z"/>
  <path class="cls-20" d="M464.67,257.09c-1.58.58-3.15,1.16-4.73,1.74,1.58-.58,3.15-1.16,4.73-1.74Z"/>
  <path class="cls-20" d="M349.73,522.4c-1.89.73-3.77,1.46-5.66,2.19,1.89-.73,3.77-1.46,5.66-2.19Z"/>
  <path class="cls-9" d="M864.4,457.54c1.02-.99,2.05-1.98,3.07-2.96-1.02.99-2.05,1.98-3.07,2.96Z"/>
  <path class="cls-20" d="M453.69,260.91c-1.91.64-3.82,1.28-5.74,1.92,1.91-.64,3.82-1.28,5.74-1.92Z"/>
  <path class="cls-7" d="M658.2,643.36c-1.61-.93-3.23-1.86-4.84-2.79,1.61.93,3.23,1.86,4.84,2.79Z"/>
  <path class="cls-18" d="M793.47,568.43c-1.02.98-2.03,1.96-3.05,2.93l-.19-.14c.99-1.02,1.99-2.05,2.98-3.07l.26.27Z"/>
  <path class="cls-20" d="M477.67,252.86c-1.73.59-3.45,1.18-5.18,1.78,1.73-.59,3.45-1.18,5.18-1.78Z"/>
  <path class="cls-9" d="M693.48,600.31c.98-1.01,1.96-2.02,2.93-3.03-.98,1.01-1.96,2.02-2.93,3.03Z"/>
  <path class="cls-20" d="M459.69,258.89c-1.9.65-3.8,1.3-5.7,1.95,1.9-.65,3.8-1.3,5.7-1.95Z"/>
  <path class="cls-9" d="M690.45,603.23c1.01-.97,2.02-1.94,3.03-2.91-1.01.97-2.02,1.94-3.03,2.91Z"/>
  <path class="cls-20" d="M447.7,262.88c-1.51.54-3.02,1.08-4.53,1.62,1.51-.54,3.02-1.08,4.53-1.62Z"/>
  <path class="cls-6" d="M720.3,596.91c.93-.91,1.86-1.81,2.79-2.72-.93.91-1.86,1.81-2.79,2.72Z"/>
  <path class="cls-7" d="M383.6,256.7c-1.11.74-2.23,1.48-3.34,2.22,1.11-.74,2.23-1.48,3.34-2.22Z"/>
  <path class="cls-20" d="M639.56,640.49c-1.24.64-2.49,1.28-3.73,1.92,1.24-.64,2.49-1.28,3.73-1.92Z"/>
  <path class="cls-7" d="M361.46,245.84c.42-1.35.84-2.7,1.26-4.05-.42,1.35-.84,2.7-1.26,4.05Z"/>
  <path class="cls-7" d="M376.74,287.65c.69.95,1.37,1.91,2.06,2.86-.69-.95-1.37-1.91-2.06-2.86Z"/>
  <path class="cls-6" d="M714.61,591.93c-.75.77-1.49,1.55-2.23,2.32.74-.77,1.49-1.55,2.23-2.32Z"/>
  <path class="cls-20" d="M418.9,267.47c-.67-1.32-1.34-2.64-2-3.95.67,1.32,1.34,2.63,2,3.95Z"/>
  <path class="cls-20" d="M471.62,254.82c-1.46.57-2.91,1.14-4.37,1.72,1.46-.57,2.91-1.14,4.37-1.72Z"/>
  <path class="cls-7" d="M664.82,659.38c.02-1.8.04-3.59.07-5.39-.02,1.8-.04,3.59-.07,5.39Z"/>
  <path class="cls-7" d="M933.28,374.52c-.7-.55-1.41-1.09-2.11-1.64.7.55,1.41,1.09,2.11,1.64Z"/>
  <path class="cls-18" d="M733.38,584.13c.71-.59,1.42-1.17,2.14-1.76-.71.59-1.42,1.17-2.14,1.76Z"/>
  <path class="cls-18" d="M731.37,586.14c.6-.63,1.2-1.26,1.8-1.89-.6.63-1.2,1.26-1.8,1.89Z"/>
  <path class="cls-9" d="M696.44,597.24c.65-.65,1.31-1.3,1.96-1.95-.65.65-1.31,1.3-1.96,1.95Z"/>
  <path class="cls-20" d="M441.65,264.81c-.87.34-1.73.68-2.6,1.01.87-.34,1.73-.68,2.6-1.01Z"/>
  <path class="cls-7" d="M374.79,283.64c.38.84.75,1.69,1.12,2.53-.38-.84-.75-1.69-1.12-2.53Z"/>
  <path class="cls-6" d="M718.29,598.8c.62-.54,1.23-1.08,1.85-1.62-.62.54-1.23,1.08-1.85,1.62Z"/>
  <path class="cls-20" d="M480.62,251.98c-.92.28-1.83.56-2.75.84.92-.28,1.83-.56,2.75-.84Z"/>
  <path class="cls-20" d="M483.66,250.87c-.92.31-1.84.63-2.77.94.92-.31,1.84-.63,2.77-.94Z"/>
  <path class="cls-9" d="M492.44,557.46c.34,1,.68,2,1.02,3-.34-1-.68-2-1.02-3Z"/>
  <path class="cls-7" d="M924.18,369.55c-.96-.34-1.91-.67-2.87-1.01.96.34,1.91.67,2.87,1.01Z"/>
  <path class="cls-20" d="M628.53,661.24c.32.96.64,1.91.96,2.87-.32-.96-.64-1.91-.96-2.87Z"/>
  <path class="cls-22" d="M658.27,186.61c-.48.45-.96.9-1.43,1.34.48-.45.96-.9,1.43-1.34Z"/>
  <path class="cls-9" d="M681.39,190.69c-.33-.57-.67-1.14-1-1.72.33.57.67,1.14,1,1.72Z"/>
  <path class="cls-9" d="M493.45,560.45c.36.67.72,1.35,1.08,2.02-.36-.67-.72-1.35-1.08-2.02Z"/>
  <path class="cls-9" d="M498.61,566.38c0,.64,0,1.27.01,1.91-.45-.53-.89-1.05-1.34-1.57.44-.11.88-.22,1.32-.34Z"/>
  <path class="cls-6" d="M717.34,589.01c-.43.49-.85.99-1.28,1.48.43-.49.85-.99,1.28-1.48Z"/>
  <path class="cls-7" d="M354.97,259.91c.23-.37.46-.74.69-1.1-.23.37-.46.73-.69,1.1Z"/>
  <path class="cls-7" d="M355.79,258.62c.21-.35.41-.69.62-1.04-.21.35-.41.69-.62,1.04Z"/>
  <path class="cls-20" d="M376.75,540.28c-.36-.16-.71-.33-1.07-.49.36.17.71.33,1.07.49Z"/>
  <path class="cls-7" d="M384.69,256.12c-.29.17-.59.35-.88.52.3-.17.59-.35.88-.52Z"/>
  <polygon class="cls-22" points="656.66 188.26 656.69 188.62 656.38 188.8 656.26 188.41 656.66 188.26"/>
  <path class="cls-22" d="M659.54,185.62s-.12.28-.12.28c0,0-.3.01-.3.01.14-.1.28-.2.42-.29Z"/>
  <path class="cls-9" d="M875.47,446.69c.37-.34.74-.68,1.11-1.03-.37.34-.74.68-1.11,1.03Z"/>
  <path class="cls-9" d="M874.47,447.68c.35-.35.71-.69,1.06-1.04-.35.35-.71.69-1.06,1.04Z"/>
  <path class="cls-9" d="M878.47,443.7c.37-.34.74-.68,1.11-1.01-.37.34-.74.67-1.11,1.01Z"/>
  <path class="cls-9" d="M873.41,448.6c.37-.33.74-.66,1.11-.99-.37.33-.74.66-1.11.99Z"/>
  <path class="cls-9" d="M872.44,449.63c.34-.35.68-.71,1.02-1.06-.34.35-.68.71-1.02,1.06Z"/>
  <path class="cls-9" d="M871.46,450.68c.34-.36.68-.73,1.02-1.09-.34.37-.68.73-1.02,1.09Z"/>
  <path class="cls-9" d="M870.47,451.67c.35-.35.71-.71,1.06-1.06-.35.35-.71.7-1.06,1.06Z"/>
  <path class="cls-9" d="M869.42,452.6c.37-.33.73-.66,1.1-1-.37.33-.73.66-1.1,1Z"/>
  <path class="cls-9" d="M868.39,453.56c.36-.33.71-.66,1.07-.99-.36.33-.71.66-1.07.99Z"/>
  <path class="cls-9" d="M877.49,444.72c.34-.37.69-.74,1.03-1.11-.34.37-.69.74-1.03,1.11Z"/>
  <path class="cls-9" d="M867.41,454.6c.34-.36.67-.72,1.01-1.07-.34.36-.67.72-1.01,1.07Z"/>
  <path class="cls-9" d="M494.92,563.34c.22.33.44.67.66,1-.22-.33-.44-.67-.66-1Z"/>
  <path class="cls-9" d="M495.63,564.39c.28.37.56.74.84,1.11-.28-.37-.56-.74-.84-1.11Z"/>
  <path class="cls-9" d="M496.44,565.47c.28.4.56.8.84,1.21-.28-.4-.56-.8-.84-1.21Z"/>
  <path class="cls-20" d="M458.67,465.48c.31.34.63.68.94,1.01-.31-.34-.63-.68-.94-1.01Z"/>
  <path class="cls-20" d="M459.61,466.49c.33.35.66.7.99,1.05-.33-.35-.66-.7-.99-1.05Z"/>
  <path class="cls-20" d="M460.56,467.5c.34.34.69.69,1.03,1.03-.34-.34-.69-.69-1.03-1.03Z"/>
  <path class="cls-18" d="M790.42,571.36c-.35.32-.7.63-1.05.95,0,0-.09-.14-.09-.14.32-.31.64-.63.95-.94l.19.14Z"/>
  <path class="cls-20" d="M461.56,468.5c.34.35.69.7,1.03,1.05-.34-.35-.69-.7-1.03-1.05Z"/>
  <path class="cls-20" d="M462.55,469.51c.35.34.69.68,1.04,1.02-.35-.34-.69-.68-1.04-1.02Z"/>
  <path class="cls-20" d="M463.56,470.5c.33.41.66.82.98,1.23-.33-.41-.66-.82-.98-1.23Z"/>
  <path class="cls-9" d="M876.52,445.74c.35-.36.69-.72,1.04-1.08-.35.36-.69.72-1.04,1.08Z"/>
  <path class="cls-18" d="M730.42,586.96c.25-.23.49-.45.74-.68-.25.23-.49.45-.74.68Z"/>
  <path class="cls-6" d="M729.38,588.09c.29-.28.58-.55.87-.83-.29.28-.58.55-.87.83Z"/>
  <path class="cls-6" d="M728.4,588.96c.24-.23.48-.47.72-.7-.24.23-.48.47-.72.7Z"/>
  <path class="cls-6" d="M727.36,590.02c.28-.25.55-.51.83-.76-.28.25-.55.51-.83.76Z"/>
  <path class="cls-6" d="M715.51,590.88c-.11.22-.27.39-.5.49.17-.16.33-.33.5-.49Z"/>
  <path class="cls-6" d="M726.35,590.96c.11-.33.32-.57.63-.72-.21.24-.42.48-.63.72Z"/>
  <path class="cls-7" d="M935.41,376.38c-.33-.31-.67-.61-1-.92.33.31.67.61,1,.92Z"/>
  <path class="cls-6" d="M725.38,592.1c.27-.29.55-.57.82-.86-.27.29-.55.57-.82.86Z"/>
  <path class="cls-6" d="M724.45,592.75c.14-.28.36-.45.67-.5-.22.17-.45.33-.67.5Z"/>
  <path class="cls-9" d="M699.46,594.25c.33-.31.67-.62,1-.92-.33.31-.67.62-1,.92Z"/>
  <path class="cls-6" d="M723.37,593.96c.24-.24.47-.48.71-.71-.24.24-.47.48-.71.71Z"/>
  <path class="cls-9" d="M698.45,595.22c.31-.31.63-.61.94-.92-.31.31-.63.61-.94.92Z"/>
  <path class="cls-7" d="M934.38,375.42c-.35-.29-.71-.58-1.06-.88.35.29.71.58,1.06.88Z"/>
  <path class="cls-6" d="M717.46,599.88c.08-.32.27-.54.58-.66-.19.22-.39.44-.58.66Z"/>
  <path class="cls-9" d="M689.5,604.29c.3-.33.61-.67.91-1-.3.33-.61.67-.91,1Z"/>
  <path class="cls-9" d="M688.48,605.23c.32-.3.65-.61.97-.91-.32.3-.65.61-.97.91Z"/>
  <path class="cls-7" d="M379.84,259.19c-.23.2-.47.4-.7.6.23-.2.47-.4.7-.6Z"/>
  <path class="cls-20" d="M343.85,524.65c-.39.22-.77.44-1.16.66.39-.22.77-.44,1.16-.66Z"/>
  <path class="cls-20" d="M342.65,525.34c-.39.25-.79.5-1.18.75.39-.25.79-.5,1.18-.75Z"/>
  <path class="cls-20" d="M635.61,642.52c-.33.25-.65.51-.98.76.33-.25.65-.51.98-.76Z"/>
  <path class="cls-20" d="M634.54,643.38c-.32.29-.64.58-.96.87.32-.29.64-.58.96-.87Z"/>
  <path class="cls-7" d="M659.36,644.29c-.31-.24-.62-.48-.93-.72.31.24.62.48.93.72Z"/>
  <path class="cls-20" d="M633.52,644.29c-.33.3-.67.61-1,.91.33-.3.67-.61,1-.91Z"/>
  <path class="cls-20" d="M632.47,645.26c-.32.32-.65.63-.97.95.32-.32.65-.63.97-.95Z"/>
  <path class="cls-7" d="M376.26,286.6c.16.34.31.69.47,1.03-.16-.34-.31-.69-.47-1.03Z"/>
  <path class="cls-16" d="M234.03,192.18c-.42,3.03-.82,4.57-.83,6.12-.02,12.8,0,25.59.09,38.39.04,5.98,2.39,8.34,8.55,8.36,22.61.07,45.22.07,67.83.03,5.84-.01,8.05-2.32,8.08-8.22.08-12.96.11-25.92.1-38.89,0-1.33-.45-2.66-.79-4.57-1.56.98-2.41,1.44-3.17,2-11.23,8.26-22.5,16.46-33.62,24.85-3.31,2.5-5.83,2.66-9.17-.17-4.92-4.17-10.4-7.67-15.57-11.54-6.8-5.1-13.54-10.29-21.51-16.36ZM235.35,185.81c1,1.26,1.53,2.33,2.38,2.96,8.92,6.58,17.89,13.1,26.86,19.61,3.62,2.63,7.3,7.22,10.94,7.22,3.79,0,7.66-4.36,11.34-7.04,9.7-7.06,19.31-14.25,29.68-21.91-2.15-1.11-3.59-2.29-5.2-2.6-8.02-1.58-71.56-.21-75.99,1.76Z"/>
  <path class="cls-24" d="M898.1,262.77c11.1.2,17.27-4.31,21.36-15.11,1.21-3.19.28-4.77-2.61-5.63-3.65-1.09-7.35-2.05-11.04-3.03-7.96-2.12-7.82-2-12.92,4.63-1.11,1.45-4.07,2.98-5.45,2.48-8.37-3.05-15.87-7.59-21.57-14.7-2.62-3.27-3.37-5.99.94-8.48,2.6-1.5,4.38-3.58,2.98-6.98-1.97-4.76-3.73-9.61-5.77-14.34-1.7-3.94-4.66-4.75-8.61-3.15-7.75,3.15-12.47,12.76-10.43,21.54,5.25,22.59,29.8,42.36,53.12,42.78Z"/>
  <path class="cls-19" d="M382.86,563.23c5.21-2.44,6.9,1.45,9.34,3.79-.2.44-.41.88-.61,1.31-2.7-1.58-5.4-3.16-8.73-5.1Z"/>
  <path class="cls-19" d="M318.79,556.61c-1.27,1.21-2.53,2.42-3.8,3.63-.79-.75-1.58-1.51-2.36-2.26,1.21-1.26,2.43-2.53,3.64-3.79.84.81,1.68,1.61,2.52,2.42Z"/>
  <path class="cls-19" d="M321.52,553.55c.96.52,1.92,1.03,2.87,1.55l-.5,1.18c-1.07-.37-2.14-.74-3.2-1.11.28-.54.55-1.08.83-1.62Z"/>
  <path class="cls-19" d="M371.3,555.07c-.12.28-.24.55-.36.83-.28-.12-.71-.18-.79-.38-.08-.2.19-.54.31-.82.28.12.55.24.83.36Z"/>
  <path class="cls-13" d="M665.53,240.65c7.55,7.12,15.21,14.13,22.63,21.38,6.64,6.49,13.16,13.12,19.47,19.92,4.92,5.3,11.05,8,17.96,8.68,15.35,1.52,30.76,2.42,46.1,4.05,16.05,1.71,27.95,14.35,28.72,30.54.59,12.27,1.18,24.62.45,36.86-.65,10.91,4.83,17.98,11.82,24.78.93.9,1.77,1.9,2.65,2.85,3.94,3.63,7.88,7.26,11.82,10.9,0,0,.15.08.15.08.3.3.6.6.9.9,0,0,.05.12.05.12.07.89.15,1.78.22,2.67-.33,1.22-.66,2.44-.99,3.66.43.2.86.41,1.29.61.79-1.01,1.57-2.01,2.36-3.02,0,0,.47.03.47.03l.47-.03s.13.27.13.27c.73,1.52,1.46,3.04,2.18,4.56-.52.42-1.05.84-1.57,1.25.11.11.22.22.33.33.42-.52.84-1.05,1.25-1.57l1.93.07,1.04,1.97c1.32,1.33,2.64,2.67,3.95,4,0,0,0,0,0,0,.8,1.21,1.59,2.42,2.39,3.63,0,0,.03.06.03.06.24.39.49.78.73,1.18h0c.56,1.06,1.12,2.11,1.68,3.16.63,2.34,1.27,4.68,1.9,7.01-.01,3.29-.02,6.58-.03,9.87-1.87,4.37-3.75,8.75-5.62,13.12-.45-.14-.9-.28-1.35-.42.45.14.89.28,1.34.42-4.63,4.69-9.26,9.39-13.89,14.08-.11-2.09-.53-3.75-3.16-2.17-.71-.59-1.42-1.19-2.13-1.78-.15.42-.3.85-.45,1.27.86.18,1.71.35,2.57.53,0,.66,0,1.33,0,1.99-.07.14-.15.28-.22.42.08-.14.15-.27.23-.41,1.06.06,2.11.11,3.17.17-2.58,2.54-5.15,5.09-7.73,7.63v-7.55c-.31-.08-1.67-.42-3.84-.97,2.89-3.15,5.65-5.99,3.82-10.33-.13-.31,2.84-1.94,4.39-2.92,1.76-1.11,3.46-2.37,5.34-3.2,2.53-1.12,5.22-1.88,7.84-2.8,1.37.99,2.74,1.98,4.11,2.96.3-.8.6-1.61.89-2.41-1.67-.19-3.33-.38-5-.56,1.01-2.44,2.01-4.88,3.41-8.27-1.88,1.02-3.26,1.78-5.41,2.95,0-2.43.24-4.68-.09-6.83-.2-1.34-1.26-2.56-1.93-3.83.02-.66.04-1.33.06-1.99.6-.42,1.19-.84,1.79-1.27-.6-.58-1.2-1.15-1.79-1.73-.02-.32-.03-.65-.04-.97-.66-.67-1.32-1.35-1.98-2.02-3.33-2.01-6.66-4.02-9.99-6.03-1-1.31-2-2.63-3-3.94,1.18-1.53,2.35-3.05,4.44-5.75-3.02.48-4.97.79-7.51,1.2v-8.03l-1.03-.1c-.63,1.11-1.26,2.23-1.99,3.53-3.86-5.72-4.11-5.81-6.9-2.83-2.62-.67-5.23-1.34-7.85-2.01-.74-1.3-1.47-2.59-2.21-3.89l-1.99-2.03h-.01c-2-3.59-4.24-6.88-8.92-7.06-1.34-1.98-2.69-3.95-4.03-5.93-1.02-14.51-1.77-29.05-3.19-43.52-.55-5.62-1.76-11.29-5.53-16.12-3.19-4.08-7.47-4.08-11.87-4.82-6.77-1.14-13.37-3.45-20.16-4.23-6.83-.79-13.81-.46-20.72-.33-4.18.08-8.35.72-12.52,1.11-3.29-2.04-6.57-4.08-9.86-6.11-.42-1.21-.58-2.61-1.3-3.6-4.84-6.63-9.51-13.42-14.79-19.68-5.29-6.27-8.86-15.23-19.52-14.38-.64.05-1.35-.04-1.96-.28-3.19-1.23-6.82-1.95-9.33-4.02-1.38-1.13-.59-4.65-1.22-6.97-.9-3.3.02-8.23-6.34-7.63-1.49,3.76-3.04,7.7-4.59,11.63-.97,1.36-1.94,2.73-2.91,4.09-8.86-.14-15.78,4.19-20.31,11.09-5.58,8.49-9.87,17.82-14.72,26.79-18.96,17.46-37.99,34.84-56.81,52.44-4.39,4.11-8.08,8.97-12.09,13.49-.37-.01-.74-.02-1.12-.03-1.47-1.89-2.64-4.15-4.46-5.6-5.95-4.71-12.03-9.28-18.26-13.6-5.92-4.11-12.1-7.85-18.17-11.75.3-6.35.6-12.69.9-19.04.37-1.61.56-3.29,1.13-4.82,4.94-13.2,17.4-21.51,32.65-21.75,14.93-.24,29.87.33,44.65-3.01,6.84-1.55,12.97-3.81,17.94-8.84,10.59-10.74,21.23-21.44,31.79-32.21,6.39-6.51,13.51-11.7,22.77-13.24,6.68.67,13.37,1.34,20.05,2,0,0,.02,0,.02,0,1.34.66,2.67,1.31,4.01,1.97ZM829.48,418.59c.57-.3,1.14-.59,1.71-.89-.56-.96-1.12-1.93-1.68-2.89-.42.21-.84.43-1.26.64.41,1.05.82,2.09,1.23,3.14ZM835.25,458.2c-.76.58-1.1.83-1.44,1.08.25.32.58.95.72.91.48-.14,1-.43,1.27-.83.12-.17-.34-.74-.56-1.17ZM844.81,444.13c.54-.57.93-.87,1.13-1.26.1-.19-.16-.56-.26-.84-.38.16-.96.23-1.08.51-.15.34.09.84.2,1.59ZM842.87,431.12c-.02.25-.04.49-.06.74.09-.11.25-.22.26-.35.01-.12-.13-.26-.2-.39Z"/>
  <path class="cls-7" d="M704.46,573.33c-3.1.3-6.22.91-9.3.78-2.25-.09-4.47-1.16-6.7-1.8,1.97-3.36,3.86-6.76,5.93-10.06,3.97-6.33,8.04-12.6,12.07-18.89,2.98-.96,5.93-1.99,8.93-2.86,10.11-2.91,19.19-7.44,26.14-15.68,5.32-6.3,10.92-12.36,16.35-18.57,1.79-2.04,3.46-4.2,5.18-6.3.16-.5.33-1,.49-1.5,3.54-2.73,7.07-5.47,10.61-8.2-.64,9.69-.64,19.48-2.14,29.04-1.03,6.58-7.15,9.83-12.93,11.9-10.71,3.83-19.92,9.45-27.93,17.71-8.38,8.64-17.76,16.32-26.7,24.42Z"/>
  <path class="cls-4" d="M774.16,490.27c-3.54,2.73-7.07,5.47-10.61,8.2,2.27-6.56-.98-11.76-3.87-17.23-1.55-2.95-2.88-6.49-2.84-9.74.14-9.91.72-19.85,1.66-29.72.93-9.83,2.5-19.6,3.79-29.4,0,4.98,2.56,5.04,6.12,3.19,6.65-.32,13.3-.65,19.95-.97.64.04,1.27.07,1.91.11,2.02.45,4.04.9,5.26,1.17-1.79.71-5.08.99-6.41,2.75-2.21,2.93-3.84,6.68-4.54,10.31-2.96,15.35-5.64,30.77-8.04,46.22-.47,3,.78,6.26,1.23,9.4-1.21,1.9-2.42,3.8-3.63,5.7Z"/>
  <path class="cls-8" d="M777.78,484.56c-.45-3.14-1.7-6.4-1.23-9.4,2.4-15.45,5.08-30.86,8.04-46.22.7-3.63,2.33-7.38,4.54-10.31,1.33-1.76,4.61-2.04,6.41-2.75-1.22-.27-3.24-.72-5.26-1.17,8.27-1.16,15.7,1.69,23.07,4.81-.3.77-.73,1.51-.87,2.31-1.37,7.76-2.89,15.49-3.93,23.29-.5,3.73-.07,7.58-.06,11.38-10.23,9.36-20.46,18.71-30.69,28.07Z"/>
  <path class="cls-17" d="M790.23,571.23c-.32.31-.64.63-.95.94-3.33,2-6.66,3.99-9.99,5.99-2.96.39-5.92.77-8.89,1.16-1,0-2,0-3,0-7.65.28-15.29.56-22.94.84-.35-.47-.7-.95-1.04-1.42-.34.48-.69.96-1.03,1.44-1.37-.01-2.75-.03-4.12-.04,3.37-3.28,6.75-6.56,10.12-9.83.77,1.56,1.54,3.12,2.31,4.68,1.03-1.48,2.05-2.95,3.73-5.36-3.14.35-4.59.52-6.04.68,7.3-7.43,14.57-14.9,21.92-22.27,1.12-1.12,2.66-1.84,4-2.74.22,1.44.45,2.87.54,3.47-2.19,1.29-4.18,2.12-5.72,3.45-2.51,2.16-4.61,4.8-7.12,6.95-3.67,3.15-5.05,6.28-2.35,11.02,1.49,2.61,2.73,5.67,5.79,4.79,1.7-.49,3.83-3.99,3.6-5.87-.82-6.73,2.99-8.11,8.24-8.59,1.47-.13,2.92-.74,4.38-.73,1.44.01,2.87.52,3.84.72-.47,2.83-.82,4.92-1.28,7.68,3.78-1.72,8.01-2.37,5.66-6.89-1.15-2.2-.28-3.23.06-5.08.69-3.74.61-7.39,4.28-9.86.66-.44.63-2.46.37-3.63-1.23-5.6.91-9.53,5.68-12.3,0,4.64,0,9.27.02,13.91-1.14.18-2.28.35-3.41.53v.99c1.13.18,2.27.36,3.4.54-.05,2.91-.1,5.83-.16,8.74-.59.41-1.18.81-1.76,1.22-1.26.43-2.52.86-3.78,1.28.6.91,1.2,1.81,1.8,2.72-1.05,2.6-2.11,5.2-3.16,7.8-1,1.02-1.99,2.05-2.98,3.07Z"/>
  <path class="cls-13" d="M800.28,530.42c-4.77,2.77-6.92,6.7-5.68,12.3.26,1.17.29,3.18-.37,3.63-3.67,2.47-3.59,6.13-4.28,9.86-.34,1.85-1.21,2.88-.06,5.08,2.36,4.52-1.88,5.17-5.66,6.89.46-2.76.81-4.85,1.28-7.68-.96-.2-2.4-.71-3.84-.72-1.46-.01-2.91.59-4.38.73-5.25.48-9.05,1.87-8.24,8.59.23,1.88-1.9,5.39-3.6,5.87-3.06.88-4.29-2.18-5.79-4.79-2.71-4.74-1.33-7.87,2.35-11.02,2.51-2.16,4.61-4.8,7.12-6.95,1.55-1.33,3.53-2.16,5.72-3.45-.09-.6-.32-2.03-.54-3.47,0,0,.03,0,.03,0,4.71-1.45,9.25-3.09,9.99-8.96l.02-.02c4.66-.67,6.57-4.09,7.99-8,2.62-2.7,5.24-5.4,7.86-8.1.02,3.4.05,6.8.07,10.2Z"/>
  <path class="cls-15" d="M808.47,456.5c0-3.8-.43-7.65.06-11.38,1.05-7.8,2.56-15.54,3.93-23.29.14-.8.58-1.54.88-2.31,5.02,3.12,6.92,2.9,9.02-1.05,3.33,2.01,6.66,4.02,9.99,6.04.66.67,1.32,1.35,1.98,2.02,0,.32.02.65.04.97,0,1,0,2,0,3-.02.66-.04,1.33-.06,1.99-2.12,2-4.28,3.97-6.36,6.02-5.76,5.68-11.48,11.4-17.27,17.05-.54.52-1.47.64-2.22.94Z"/>
  <path class="cls-25" d="M748.39,570.3c-3.37,3.28-6.75,6.56-10.12,9.83-.61.09-1.22.17-1.84.26-3.03-.36-6.07-.72-9.1-1.09,15.35-14.98,30.7-29.97,46.05-44.95,1.02,2.02,2.03,4.04,3.05,6.05-.69,1.63-1.39,3.26-2.08,4.89,0,0-.03,0-.03,0-1.35.9-2.88,1.61-4,2.74-7.36,7.37-14.63,14.84-21.92,22.27h0Z"/>
  <path class="cls-3" d="M776.43,540.4c-1.02-2.02-2.03-4.04-3.05-6.05,7.78-7.59,15.53-15.21,23.4-22.71.84-.8,2.38-.85,3.6-1.24h0c-.06,3.27-.11,6.55-.17,9.82-2.62,2.7-5.24,5.4-7.86,8.1-4.1,1.23-7.39,3.27-7.99,8,0,0-.02.02-.01.02-1.63.68-3.26,1.37-4.89,2.05-1.01.67-2.02,1.34-3.03,2.01,0,0,0,0,0,0Z"/>
  <path class="cls-13" d="M800.28,546.39c-1.14-.18-2.27-.36-3.41-.54v-.99c1.14-.18,2.28-.35,3.42-.53,0,.68,0,1.37,0,2.05Z"/>
  <path class="cls-9" d="M875.2,436.43c1.02-1,2.04-2,3.07-2.99-1.02,1-2.04,2-3.07,2.99Z"/>
  <path class="cls-9" d="M863.97,447.3c.39-.36.78-.73,1.17-1.1-.39.36-.78.73-1.17,1.1Z"/>
  <path class="cls-9" d="M868.14,443.37c.36-.35.72-.7,1.08-1.05-.36.35-.72.7-1.08,1.05Z"/>
  <path class="cls-9" d="M869.16,442.37c.36-.35.71-.7,1.07-1.04-.36.35-.71.7-1.07,1.04Z"/>
  <path class="cls-9" d="M870.17,441.4c.34-.39.69-.78,1.03-1.18-.34.39-.69.78-1.03,1.18Z"/>
  <path class="cls-9" d="M872.06,439.36c.4-.33.8-.66,1.19-.99-.4.33-.8.66-1.19.99Z"/>
  <path class="cls-9" d="M873.2,438.41c.36-.35.71-.69,1.07-1.04-.36.35-.71.69-1.07,1.04Z"/>
  <path class="cls-9" d="M867.14,444.36c.35-.35.71-.71,1.06-1.06-.35.35-.71.71-1.06,1.06Z"/>
  <path class="cls-9" d="M866.12,445.34c.36-.35.73-.69,1.09-1.04-.36.34-.73.69-1.09,1.04Z"/>
  <path class="cls-3" d="M800.38,510.4c.08-.14.15-.28.23-.42-.08.14-.15.28-.23.42,0,0,0,0,0,0Z"/>
  <path class="cls-9" d="M865.07,446.26c.37-.33.74-.66,1.11-.99-.37.33-.74.66-1.11.99Z"/>
  <path class="cls-18" d="M490.86,504.44c0-3.08,0-6.15,0-9.26,3.36.43,6.55.84,9.75,1.25,6.79,4.22,13.53,8.51,20.39,12.61,2.34,1.4,4.97,2.31,7.47,3.45,5.99,4.66,11.98,9.32,17.97,13.98,3.21,3.37,6.51,6.65,9.58,10.14,1.75,1.98,3.11,4.31,4.64,6.48.32.41.64.81.96,1.22l.08-.05c-.38,6.41-.46,6.61-6.46,4.09-14.66-6.16-29.08-12.77-40.53-24.3-.89-.89-2.12-1.95-2.23-3.03-.72-7-5.64-11.43-10.01-15.97-2.35-2.44-5.98-3.65-8.73-5.25-1.13,1.82-2.01,3.22-2.88,4.63Z"/>
  <path class="cls-8" d="M560.65,543.09c-1.53-2.17-2.89-4.49-4.64-6.48-3.07-3.49-6.37-6.77-9.58-10.14,3.39.99,6.88,1.71,10.13,3.02,8.28,3.36,16.45,6.98,25.3,10.77.28,4.27,1.89,5.12,6.68,2.1,3.58,8.06,8.68,15.94,2.88,25.08-4.94-2.72-9.88-5.45-14.82-8.17-.98-1-1.97-1.99-2.96-2.98-.34-.35-.69-.69-1.03-1.04-3.64-3.66-7.29-7.32-10.93-10.99,0,0-.08.05-.08.05-.32-.41-.64-.81-.96-1.22Z"/>
  <path class="cls-11" d="M572.62,555.25c.34.35.69.69,1.03,1.04-.34-.35-.69-.69-1.03-1.04Z"/>
  <path class="cls-7" d="M884.1,415.73c-1.97-4.07-4.96-4.37-9.28-3.78-9.81,1.34-19.76,1.69-29.64,2.62-1.33.12-2.56,1.27-3.84,1.94-1.32-1.33-2.64-2.67-3.95-4-.35-.66-.69-1.31-1.04-1.97l-1.93-.07-.02-.02c-.73-1.52-1.46-3.04-2.18-4.55,3.81.3,7.64,1.06,11.41.8,10.38-.72,20.72-1.99,31.09-2.79,3.31-.26,4.72-1.13,4.27-4.78-.26-2.13.75-4.41,1.18-6.62-.72,8.08.54,15.83,3.93,23.22Z"/>
  <path class="cls-9" d="M888.34,421.37c-.25-.3-.49-.6-.74-.9.25.3.49.6.74.9Z"/>
  <path class="cls-9" d="M887.38,420.26c-.21-.28-.42-.55-.62-.83.21.28.42.55.62.83Z"/>
  <path class="cls-7" d="M891.03,374.15c.37-.24.73-.49,1.09-.73-.37.24-.73.49-1.09.73Z"/>
  <path class="cls-7" d="M892.17,373.38c.39-.25.78-.5,1.17-.75-.39.25-.78.5-1.17.75Z"/>
  <path class="cls-7" d="M893.38,372.61c.33-.21.67-.42,1-.63-.34.21-.67.42-1,.63Z"/>
  <path class="cls-22" d="M668.48,596.28c-6.05,4.27-12.29,8.28-18.05,12.91-2.83,2.27-4.86,2.19-7.4.17-9.82-7.83-19.65-15.65-29.47-23.49-1.41-1.12-2.73-2.34-4.09-3.52.94-1.2,1.68-2.66,2.85-3.54,2.19-1.63,4.63-4.12,6.98-4.13,6.55-.03,13.1,1.08,19.66,1.64,3.42.3,6.86.31,10.27.62,5.62.52,11.22,1.12,16.82,1.83.67.08,1.35.95,1.82,1.61q4.77,6.64,12.13,3.99c.15-.05.33-.04.49-.06-1,2-2.01,3.99-3.01,5.99-.33,0-.66,0-.99.01l-2.02,1.97c-1.99,1.33-3.99,2.66-5.98,3.99Z"/>
  <path class="cls-4" d="M591.43,567.44c5.8-9.14.7-17.02-2.88-25.08,0-.96-.01-1.93-.02-2.89,1.32-.01,2.67-.21,3.96,0,16.58,2.7,33.14,5.53,49.73,8.14,2.65.42,5.43-.02,8.15-.06,2.05,5.6,4.11,11.2,6.16,16.8-2.34,0-4.68,0-7.02,0-2.66.06-5.33-.08-7.97.2-13.78,1.45-27.36,5-41.4,3.88-1.87-.15-3.82.71-5.73,1.1-.99-.69-1.98-1.39-2.97-2.08Z"/>
  <path class="cls-8" d="M594.4,569.52c1.91-.39,3.86-1.25,5.73-1.1,14.04,1.12,27.62-2.43,41.4-3.88,2.63-.28,5.31-.14,7.97-.2,1.89,1.62,3.71,3.35,5.71,4.83,1.99,1.47,4.01,3.33,6.28,3.87,7.25,1.71,14.63,2.88,21.96,4.26-.3,1.33-.59,2.65-.89,3.98-.69,1.01-1.38,2.02-2.08,3.02-.17.02-.34,0-.49.06q-7.37,2.66-12.13-3.99c-.47-.65-1.15-1.52-1.82-1.61-5.59-.71-11.2-1.32-16.82-1.83-3.41-.31-6.86-.33-10.27-.62-6.56-.57-13.11-1.67-19.66-1.64-2.35,0-4.79,2.5-6.98,4.13-1.18.88-1.92,2.34-2.85,3.54-5.02-4.28-10.04-8.55-15.05-12.83Z"/>
  <path class="cls-15" d="M680.48,584.32c.69-1.01,1.38-2.01,2.08-3.02.98,0,2-.17,2.93.06,2.25.54,4.45,1.26,6.68,1.92-.98,1.76-2.03,3.48-2.92,5.29-.41.83-.53,1.81-.78,2.73-1.66,0-3.32.02-4.99.03-2-.33-4-.67-6-1,1-2,2.01-3.99,3.01-5.99Z"/>
  <path class="cls-9" d="M677.47,590.31c2,.33,4,.67,6,1-4.43,1.87-8.86,3.78-13.32,5.57-.41.16-1.1-.38-1.67-.6,1.99-1.33,3.99-2.66,5.98-3.99.68-.66,1.35-1.32,2.02-1.97.33,0,.66-.01.99-.01Z"/>
  <path class="cls-14" d="M310.02,545.06c2.11-4.03,6.66-2.79,9.75-4.7.24.52.49,1.03.73,1.55-3.23,1.61-6.46,3.22-9.68,4.82-.26-.56-.53-1.11-.79-1.67Z"/>
  <path class="cls-14" d="M326.14,547.91h-4.74c0-.33,0-.66,0-.99h4.75c0,.33,0,.66,0,.99Z"/>
  <path class="cls-14" d="M387.7,558.35c-.86-.17-1.73-.35-2.59-.52.16-.42.31-.84.47-1.27.71.59,1.42,1.19,2.12,1.78h0Z"/>
  <path class="cls-14" d="M400.69,557.35c.59.69,1.18,1.38,1.77,2.06-.35.19-.71.38-1.06.57-.24-.88-.48-1.75-.71-2.63h0Z"/>
  <path class="cls-22" d="M648.31,223.48c1.81-5.23,3.77-10.41,5.35-15.7.47-1.58-.1-3.46-.19-5.21.36-1.28.71-2.56,1.07-3.84,3.64,7.8,10.61,8.19,17.84,8.03-.57.26-1.21.83-1.7.72-7.98-1.68-10.46,3.28-12.1,9.63-.68,2.64-2.01,5.11-3.04,7.65-.92,2.45-1.84,4.89-2.76,7.34-.16.52-.32,1.04-.48,1.57-1.67.37-3.35.75-6.15,1.38.84-4.48,1.51-8.02,2.17-11.57Z"/>
  <path class="cls-20" d="M450.56,269.66c-4.97,1.66-9.93,3.32-14.9,4.98,1.93-1.08,2.04-5.04,5.6-3.52,0,0-.18,0-.18,0,1.86-.48,3.72-.96,5.59-1.43h0c1.3,0,2.6-.02,3.9-.02Z"/>
  <path class="cls-20" d="M477.45,260.67c-1.94.67-3.88,1.33-5.81,2,1.94-.67,3.88-1.33,5.81-2Z"/>
  <path class="cls-20" d="M446.66,269.69c-.51-.31-1.01-.62-1.52-.93.2-.2.39-.39.59-.59.31.51.62,1.01.94,1.52,0,0,0,0,0,0Z"/>
  <path class="cls-20" d="M463.47,265.63c-1.27.37-2.53.73-3.8,1.1,1.27-.37,2.53-.73,3.8-1.1Z"/>
  <path class="cls-20" d="M468.6,263.68c-.99.34-1.97.68-2.96,1.02l2.96-1.02Z"/>
  <path class="cls-20" d="M453.52,268.62c-.95.33-1.9.66-2.85.98.95-.33,1.9-.66,2.85-.98Z"/>
  <path class="cls-20" d="M456.61,267.69c-.99.3-1.99.6-2.98.9.99-.3,1.99-.6,2.98-.9Z"/>
  <path class="cls-20" d="M459.69,266.72c-1.01.31-2.01.62-3.02.93,1.01-.31,2.01-.62,3.02-.93Z"/>
  <path class="cls-20" d="M471.61,262.68c-.99.32-1.98.65-2.97.97.99-.32,1.98-.65,2.97-.97Z"/>
  <path class="cls-20" d="M435.62,274.65c-.59.19-1.18.38-1.76.57.59-.19,1.18-.38,1.76-.57Z"/>
  <path class="cls-12" d="M441.07,271.12s.18,0,.18,0c0,0-.18,0-.18,0Z"/>
  <path class="cls-20" d="M410.71,293.72c-.35.26-.7.52-1.05.78.35-.26.7-.52,1.05-.78Z"/>
  <path class="cls-20" d="M411.81,292.94c-.34.24-.69.48-1.03.72.34-.24.69-.48,1.03-.72Z"/>
  <path class="cls-15" d="M528.46,512.49c-2.5-1.14-5.13-2.05-7.47-3.45-6.86-4.1-13.6-8.39-20.39-12.61,1.28-1.94,2.15-4.47,3.93-5.7,4.07-2.84,4.39-7.81.38-10.79-1.97-1.47-3.78-3.24-5.37-5.13-3.27-3.89-6.95-6.3-12.4-5.51-1.28.19-3.32-1.16-4.19-2.39-4.55-6.37-6.14-13.72-6.32-21.43.34-3.68.67-7.36,1.01-11.04,2.99-2.18,5.96-4.38,8.96-6.54,1.62-1.16,3.28-2.26,4.92-3.39,1.66,1.25,3.35,2.46,4.97,3.75,1.75,1.4,3.44,2.89,5.15,4.34.88,1.35,1.47,3.07,2.68,3.98,4.39,3.33,4.96,7.19,3.24,12.29-.87,2.57-.74,5.99.21,8.57,2.35,6.41,5.39,12.57,8.24,18.79,1.43,3.12,3.06,6.14,4.6,9.21,1.67,5.66,3.35,11.33,5.02,16.99.94,3.36,1.89,6.72,2.83,10.07Z"/>
  <path class="cls-3" d="M477.64,434.43c-.34,3.68-.67,7.36-1.01,11.04-6.01,5.61-12.02,11.23-18.02,16.84-4.28.37-5.38-3.04-6.97-5.87,4.34-4.32,8.68-8.65,13.02-12.97,4.33-3.02,8.66-6.03,12.99-9.05Z"/>
  <path class="cls-7" d="M464.64,443.48c-4.34,4.32-8.68,8.65-13.02,12.97-1.62-2-3.24-4-4.86-6-6.6-10.17-5.02-24.84,2.22-33.63,8.03-9.75,17.71-18.15,26.66-27.14,1.13,1.92,1.96,4.12,3.44,5.72,2.99,3.23,6.33,6.14,9.53,9.18-1.06,1.38-1.94,2.96-3.22,4.1-6.14,5.45-12.62,10.55-18.54,16.23-5.85,5.62-6.36,12.23-2.22,18.57Z"/>
  <path class="cls-13" d="M488.62,404.59c-3.2-3.04-6.54-5.95-9.53-9.18-1.48-1.6-2.31-3.79-3.44-5.72.06-.28.23-.42.52-.43.39-.39.78-.78,1.17-1.17.29-.27.57-.54.86-.8.37-.35.74-.7,1.11-1.06l.31.27s-.33-.25-.33-.25c.3-.42.6-.84.9-1.25,2.87-3.81,5.75-7.62,8.62-11.43.61-1.74,1.68-3.47,1.73-5.23.19-6.87.05-13.75.03-20.63,8.36,6.64,16.68,13.32,25.11,19.89,3.21,2.5,6.65,4.72,9.99,7.07-2.32,2.48-4.46,5.17-6.99,7.4-8.61,7.59-17.36,15.03-26.05,22.52-1.34,0-2.67,0-4.01,0Z"/>
  <path class="cls-10" d="M525.67,374.66c-3.34-2.35-6.77-4.56-9.99-7.07-8.42-6.56-16.74-13.25-25.11-19.89-.32-2.71-.64-5.42-.96-8.13,6.07,3.9,12.25,7.64,18.17,11.75,6.23,4.33,12.31,8.89,18.26,13.6,1.82,1.44,2.99,3.71,4.46,5.6-1.02,1.28-2.03,2.55-3.05,3.83-.59.1-1.19.2-1.79.3Z"/>
  <path class="cls-21" d="M683.45,577.31c-7.33-1.38-14.71-2.55-21.96-4.26-2.28-.54-4.3-2.41-6.28-3.87-2-1.48-3.81-3.21-5.71-4.83,2.34,0,4.68,0,7.02,0,.08.24.09.49.03.74.41,1.07.82,2.15,1.22,3.22,5.63-2.29,11.67-3.92,16.81-7.02,10.23-6.16,19.97-13.13,29.91-19.77.65.61,1.31,1.23,1.96,1.84-4.03,6.29-8.1,12.56-12.07,18.89-2.07,3.3-3.96,6.7-5.93,10.06-1.67,1.66-3.34,3.33-5.01,4.99Z"/>
  <path class="cls-13" d="M767.4,579.32c1,0,2,0,3,0-1,0-2,0-3,0Z"/>
  <path class="cls-13" d="M742.39,580.17c.34-.48.69-.96,1.03-1.44.35.48.7.95,1.04,1.42-.69,0-1.38,0-2.08.01Z"/>
  <path class="cls-13" d="M796.38,560.35c-.6-.91-1.2-1.81-1.8-2.72,1.26-.43,2.52-.86,3.78-1.28-.66,1.34-1.32,2.67-1.98,4.01Z"/>
  <path class="cls-23" d="M234.03,192.18c7.97,6.07,14.71,11.26,21.51,16.36,5.17,3.88,10.65,7.38,15.57,11.54,3.34,2.83,5.86,2.67,9.17.17,11.13-8.39,22.4-16.59,33.62-24.85.76-.56,1.61-1.02,3.17-2,.35,1.91.79,3.24.79,4.57.01,12.96-.02,25.92-.1,38.89-.04,5.9-2.24,8.2-8.08,8.22-22.61.05-45.22.04-67.83-.03-6.17-.02-8.51-2.38-8.55-8.36-.08-12.8-.11-25.59-.09-38.39,0-1.55.4-3.09.83-6.12Z"/>
  <path class="cls-1" d="M235.35,185.81c4.43-1.97,67.98-3.34,75.99-1.76,1.61.32,3.05,1.5,5.2,2.6-10.36,7.67-19.98,14.85-29.68,21.91-3.67,2.68-7.55,7.03-11.34,7.04-3.64,0-7.32-4.59-10.94-7.22-8.97-6.51-17.94-13.03-26.86-19.61-.85-.63-1.39-1.7-2.38-2.96Z"/>
  <path class="cls-4" d="M648.31,223.48c-.66,3.54-1.33,7.08-2.17,11.57,2.8-.63,4.48-1,6.15-1.38,1.29.99,2.48,2.16,3.9,2.91,1.67.89,3.54,1.41,5.32,2.09-6.68-.67-13.37-1.34-20.05-2,2.28-4.4,4.57-8.79,6.85-13.19Z"/>
  <path class="cls-7" d="M827.16,400.61c-3.94-3.63-7.88-7.26-11.82-10.89,3.94,3.63,7.88,7.26,11.82,10.89Z"/>
  <path class="cls-4" d="M652.77,232.11c.92-2.45,1.84-4.89,2.76-7.34-.92,2.45-1.84,4.89-2.76,7.34Z"/>
  <path class="cls-7" d="M828.48,404.37c-.07-.89-.15-1.78-.22-2.67,1,.97,2,1.94,3,2.91,0,0-.29.32-.29.32-.83-.19-1.66-.37-2.49-.56Z"/>
  <path class="cls-4" d="M665.53,240.65c-1.34-.66-2.67-1.31-4.01-1.97,1.34.66,2.67,1.31,4.01,1.97Z"/>
  <path class="cls-7" d="M832.08,405.63l-.47.03s-.47-.03-.47-.03c.04-.26-.02-.49-.17-.7,0,0,.29-.32.29-.32.27.34.55.68.82,1.01Z"/>
  <path class="cls-7" d="M828.21,401.59c-.3-.3-.6-.6-.9-.9.3.3.6.6.9.9Z"/>
  <path class="cls-1" d="M898.1,262.77c-23.32-.42-47.87-20.19-53.12-42.78-2.04-8.78,2.68-18.39,10.43-21.54,3.95-1.6,6.91-.8,8.61,3.15,2.04,4.73,3.8,9.58,5.77,14.34,1.41,3.4-.38,5.48-2.98,6.98-4.31,2.49-3.57,5.22-.94,8.48,5.71,7.11,13.2,11.65,21.57,14.7,1.38.5,4.33-1.03,5.45-2.48,5.1-6.63,4.96-6.75,12.92-4.63,3.69.98,7.38,1.94,11.04,3.03,2.89.86,3.82,2.44,2.61,5.63-4.09,10.79-10.25,15.31-21.36,15.11Z"/>
  <path class="cls-23" d="M311.89,665.25c1.6-4.38,3.07-8.81,4.84-13.12,1-2.43,1.15-3.9-1.4-5.76-18.99-13.83-19.63-38.52-1.56-53.72,18.95-15.94,50.64-14.81,68.09,2.22,18.81,18.34,12.82,43.59-10.48,56.41-10.42,5.74-21.51,6.08-32.96,4.94-2.34-.23-5.03.56-7.19,1.63-5.84,2.88-11.47,6.17-17.19,9.29-.71-.63-1.43-1.26-2.14-1.89ZM326.3,626.07c3.74-.09,6.71-3.28,6.69-7.17-.02-3.83-3.68-7.38-7.4-7.18-3.45.18-6.8,3.87-6.69,7.36.14,4.1,3.3,7.09,7.39,6.99ZM374.89,618.84c-.09-3.93-3.69-7.41-7.42-7.18-3.51.21-6.32,3.45-6.24,7.2.07,3.66,3.45,7.13,6.98,7.16,3.86.04,6.78-3.1,6.69-7.18ZM347.18,612.23c-3.45-.09-7.01,3.35-7.08,6.84-.08,3.9,3.21,7.4,7.04,7.49,3.74.09,6.75-2.93,6.89-6.9.15-4.22-2.72-7.33-6.85-7.44Z"/>
  <path class="cls-22" d="M796.31,396.64c.74,1.3,1.47,2.59,2.21,3.89-2.05,0-4.1,0-6.15-.01-4.58-5.03-10.55-3.96-16.32-3.71-5,.21-9.62,1.55-13.59,4.72-9.35-9.17-18.65-18.38-28.06-27.49-9.61-9.3-18.09-19.96-30.6-25.82-8.4-3.94-16.8-7.88-25.25-11.72-7.36-3.35-14.78-6.56-22.18-9.84,1.63.12,3.29.47,4.9.32,3.73-.36,7.6,3.1,11.21-.37,1.34,4.99,5.91,1.32,8.32,3.46-1.5-4.55-5.19-3.26-8.32-3.47.94-1.04,1.69-2.65,2.85-3.01,3.88-1.23,7.96-1.84,11.84-3.07,1.86-.59,4.54-1.79,4.87-3.18.4-1.66-.95-4.12-2.18-5.73-2.92-3.81-6.23-7.33-9.38-10.96,1.22.37,2.49.64,3.67,1.14,4.48,1.89,8.92,3.86,13.38,5.8,3.29,2.04,6.57,4.08,9.86,6.11,1.29,1.27,2.44,2.72,3.88,3.78,6.36,4.66,13.2,8.76,19.16,13.88,17.43,14.99,34.03,30.86,48.44,48.87.55.69,1.65.93,2.5,1.37,1.34,1.98,2.69,3.95,4.03,5.93,2.97,2.35,5.95,4.7,8.92,7.05,0,0,.01.01.01.01.66.68,1.33,1.35,1.99,2.03Z"/>
  <path class="cls-11" d="M781.36,381.61c-.85-.45-1.95-.69-2.5-1.37-14.42-18.01-31.02-33.88-48.44-48.87-5.96-5.12-12.79-9.22-19.16-13.88-1.44-1.06-2.6-2.51-3.88-3.78,4.17-.39,8.34-1.03,12.52-1.11,6.91-.13,13.89-.46,20.72.33,6.79.78,13.39,3.09,20.16,4.23,4.4.74,8.68.74,11.87,4.82,3.77,4.83,4.98,10.5,5.53,16.12,1.42,14.47,2.17,29.01,3.19,43.52Z"/>
  <path class="cls-8" d="M672.48,326.62c-3.61,3.47-7.47.01-11.21.37-1.61.15-3.27-.2-4.9-.32-.31.01-.61-.04-.9-.17-.38-.24-.77-.47-1.15-.71,0,0-.1.08-.1.08l.26-1.24s.02-.02.02-.02c.45-1.08,1.31-2.19,1.25-3.24-.11-1.76-1.4-3.58-1.16-5.22,1.17-7.66-4.5-15.23-.28-22.91.22-.41-.24-1.27-.51-1.86-4.4-9.51-14.53-11-20.52-5.97-3.26,2.74-6.41,4.11-9.77.25,1-1.5,2.02-2.99,2.98-4.52,3.03-4.79,6.05-9.6,9.07-14.4.97-1.36,1.94-2.73,2.91-4.09,5.82,1.98,8.97,5.48,10.61,11.96,1.22,4.83,5.44,9.64,9.58,12.81,6.72,5.13,14.48,8.89,21.81,13.23,3.15,3.64,6.46,7.15,9.38,10.96,1.24,1.61,2.59,4.07,2.18,5.73-.34,1.4-3.01,2.59-4.87,3.18-3.88,1.23-7.96,1.84-11.84,3.07-1.15.37-1.91,1.97-2.85,3.01h0Z"/>
  <path class="cls-22" d="M531.62,370.56c4.01-4.52,7.7-9.38,12.09-13.49,18.82-17.6,37.86-34.98,56.81-52.44,1.34.35,2.68.7,4.01,1.04-11.33,17.01-22.66,34.03-34,51.04-.41-.25-.82-.51-1.23-.76l1.42,1.89c-3.83,5.69-10.22,4.27-17.17,5.32,3.33,2.15,5.45,3.51,8.12,5.23-3.43,4.01-6.8,7.96-10.18,11.91-3.98,1.91-6.6-.66-9.48-2.73-3.4-2.45-6.94-4.69-10.42-7.02Z"/>
  <path class="cls-15" d="M680.47,300.66c-7.32-4.34-15.08-8.11-21.81-13.23-4.15-3.16-8.36-7.98-9.58-12.81-1.64-6.48-4.79-9.98-10.61-11.96,1.55-3.93,3.11-7.86,4.59-11.63,6.36-.6,5.44,4.33,6.34,7.63.63,2.32-.15,5.84,1.22,6.97,2.51,2.07,6.15,2.79,9.33,4.02.6.23,1.31.33,1.96.28,10.65-.85,14.22,8.11,19.52,14.38,5.28,6.26,9.95,13.05,14.79,19.68.72.99.88,2.39,1.3,3.6-4.46-1.94-8.9-3.91-13.38-5.8-1.17-.5-2.44-.77-3.67-1.14Z"/>
  <path class="cls-9" d="M604.54,305.67c-1.34-.35-2.68-.7-4.01-1.04,4.85-8.97,9.14-18.3,14.72-26.79,4.54-6.9,11.45-11.22,20.31-11.09-3.02,4.8-6.03,9.61-9.07,14.4-.96,1.52-1.99,3.01-2.98,4.52-6.32,6.67-12.65,13.34-18.97,20Z"/>
  <path class="cls-6" d="M792.38,400.52c2.05,0,4.1,0,6.15.01,2.62.67,5.23,1.34,7.85,2.01,2.18,2.69,4.15,5.6,6.62,7.99,1.77,1.7,4.22,2.69,6.37,4,1,1.31,2,2.63,3,3.94-2.1,3.95-4,4.17-9.02,1.05-7.37-3.12-14.8-5.97-23.07-4.81-.64-.04-1.27-.07-1.91-.11-1.31-3.36-2.63-6.72-3.94-10.07,2.65-1.34,5.3-2.67,7.95-4.01Z"/>
  <path class="cls-11" d="M531.62,370.56c3.48,2.33,7.02,4.57,10.42,7.02,2.87,2.07,5.5,4.64,9.48,2.73-2.42,3.05-4.85,6.1-7.27,9.15-5.59-5.04-11.19-10.08-16.78-15.12,1.02-1.28,2.03-2.55,3.05-3.83.37.01.74.02,1.12.03Z"/>
  <path class="cls-18" d="M819.36,414.53c-2.15-1.31-4.6-2.3-6.37-4-2.48-2.39-4.44-5.3-6.62-7.99,2.79-2.98,3.04-2.89,6.9,2.83.73-1.3,1.36-2.41,1.99-3.53l1.03.1v8.03c2.54-.41,4.49-.72,7.51-1.2-2.08,2.7-3.26,4.23-4.44,5.75Z"/>
  <path class="cls-11" d="M794.31,394.6c-2.97-2.35-5.95-4.7-8.92-7.05,4.69.19,6.92,3.47,8.92,7.05Z"/>
  <path class="cls-18" d="M838.35,448.47c1.67.19,3.33.38,5,.56-.3.8-.6,1.61-.89,2.41-1.37-.99-2.74-1.98-4.11-2.96,0,0,0,0,0,0Z"/>
  <path class="cls-18" d="M830.97,404.94c.15.21.2.44.17.7-.79,1.01-1.57,2.01-2.36,3.02-.43-.2-.86-.41-1.29-.61.33-1.22.66-2.44.99-3.66.83.19,1.66.37,2.49.56Z"/>
  <path class="cls-18" d="M848.08,431.55c-.01,3.29-.02,6.58-.03,9.87.01-3.29.02-6.58.03-9.87Z"/>
  <path class="cls-18" d="M829.48,418.59c-.41-1.05-.82-2.09-1.23-3.14.42-.21.84-.43,1.26-.64.56.96,1.12,1.93,1.68,2.89-.57.3-1.14.59-1.71.89Z"/>
  <path class="cls-18" d="M828.53,468.62c-1.06-.06-2.11-.11-3.17-.17h0c0-.67,0-1.33,0-2h.01c2.63-1.58,3.05.07,3.16,2.16,0,0,0,0,0,0Z"/>
  <path class="cls-18" d="M835.25,458.2c.22.43.68.99.56,1.17-.27.4-.8.69-1.27.83-.14.04-.48-.59-.72-.91.34-.25.67-.51,1.44-1.08Z"/>
  <path class="cls-18" d="M825.35,466.46c-.86-.18-1.71-.35-2.57-.53.15-.42.3-.85.45-1.27.71.59,1.42,1.19,2.13,1.78,0,0-.01.01-.01.01Z"/>
  <path class="cls-18" d="M834.39,430.5c0-1,0-2,0-3,.6.58,1.2,1.15,1.79,1.73l-1.79,1.27Z"/>
  <path class="cls-7" d="M841.35,416.51c.79,1.21,1.59,2.42,2.39,3.63-.79-1.21-1.59-2.42-2.39-3.63Z"/>
  <path class="cls-18" d="M844.81,444.13c-.12-.75-.35-1.26-.2-1.59.12-.28.7-.35,1.08-.51.1.29.35.66.26.84-.2.39-.59.68-1.13,1.26Z"/>
  <path class="cls-7" d="M844.5,421.39c.56,1.05,1.12,2.1,1.68,3.15-.56-1.05-1.12-2.1-1.68-3.15Z"/>
  <path class="cls-18" d="M834.34,426.53c-.66-.67-1.32-1.35-1.98-2.02.66.67,1.32,1.35,1.98,2.02Z"/>
  <path class="cls-18" d="M834.42,410.47c-.42.52-.84,1.05-1.25,1.57-.11-.11-.22-.22-.33-.33.52-.42,1.05-.84,1.57-1.25,0,0,.02.01.02.01Z"/>
  <path class="cls-11" d="M796.31,396.64c-.66-.68-1.33-1.36-1.99-2.03.66.68,1.33,1.36,1.99,2.03Z"/>
  <path class="cls-18" d="M842.87,431.12c.07.13.21.27.2.39-.01.12-.17.23-.26.35.02-.25.04-.49.07-.74Z"/>
  <path class="cls-18" d="M836.35,410.53c.35.66.69,1.31,1.04,1.97-.35-.66-.69-1.31-1.04-1.97Z"/>
  <path class="cls-18" d="M842.42,454.54c-.45-.14-.89-.28-1.34-.42.45.14.9.28,1.35.42,0,0,0,0,0,0Z"/>
  <path class="cls-7" d="M843.77,420.2c.24.39.49.78.73,1.18-.24-.39-.49-.78-.73-1.18Z"/>
  <path class="cls-18" d="M825.36,468.45c-.08.14-.15.27-.23.41.07-.14.15-.28.22-.42,0,0,0,0,0,0Z"/>
  <path class="cls-4" d="M730.44,515.31c2.43-1.34,4.78-2.84,7.29-3.99,8.41-3.85,16.88-7.58,25.33-11.35-1.73,2.1-3.39,4.26-5.18,6.3-5.43,6.2-11.03,12.27-16.35,18.57-6.96,8.23-16.03,12.76-26.14,15.68-3,.86-5.95,1.9-8.93,2.86-.65-.61-1.31-1.23-1.96-1.84,8.18-7.43,16.41-14.82,24.49-22.36.9-.84.99-2.55,1.46-3.86Z"/>
  <path class="cls-21" d="M762.29,412.38c.05-3.62.11-7.23.17-10.85,3.97-3.18,8.59-4.51,13.59-4.72,5.78-.25,11.74-1.31,16.32,3.71-2.65,1.34-5.3,2.67-7.95,4.01-8.25-.54-9.99,8.35-16.01,11.04-3.56,1.85-6.12,1.79-6.12-3.19Z"/>
  <path class="cls-8" d="M768.41,415.57c6.02-2.69,7.76-11.58,16.01-11.04,1.31,3.36,2.63,6.72,3.94,10.07-6.65.32-13.3.65-19.95.97Z"/>
  <path class="cls-13" d="M748.38,570.3c1.45-.16,2.9-.33,6.04-.68-1.67,2.41-2.7,3.88-3.73,5.36-.77-1.56-1.54-3.12-2.31-4.68,0,0,0,0,0,0Z"/>
  <path class="cls-17" d="M779.45,538.38c1.63-.68,3.26-1.36,4.89-2.05-.74,5.87-5.28,7.52-9.99,8.96.69-1.63,1.39-3.26,2.08-4.89,0,0,0,0,0,0,1.01-.67,2.02-1.34,3.03-2.01Z"/>
  <path class="cls-17" d="M784.35,536.32c.6-4.73,3.89-6.77,7.99-8-1.43,3.9-3.33,7.32-7.99,8Z"/>
  <path class="cls-25" d="M779.45,538.38c-1.01.67-2.02,1.34-3.03,2.01,1.01-.67,2.02-1.34,3.03-2.01Z"/>
  <path class="cls-21" d="M553.68,489.27c7.65,10.99,15.43,21.9,22.88,33.02,3.39,5.06,6.09,10.58,9.25,15.8.45.74,1.78.93,2.71,1.38,0,.96.01,1.93.02,2.89-4.79,3.02-6.4,2.17-6.68-2.1-8.84-3.79-17.02-7.41-25.3-10.77-3.25-1.32-6.75-2.04-10.13-3.02-5.99-4.66-11.98-9.32-17.98-13.98-.95-3.36-1.89-6.71-2.84-10.07,1.09-.88,2.44-1.56,3.22-2.66,2.37-3.37,4.74-5.19,8.98-2.43,1.45.94,4.49,1.01,5.92.09,3.58-2.3,6.66-5.38,9.93-8.15Z"/>
  <path class="cls-17" d="M560.65,543.09c.32.41.64.81.96,1.22-.32-.41-.64-.81-.96-1.22Z"/>
  <path class="cls-15" d="M676.48,590.32c-.67.66-1.35,1.32-2.02,1.97.67-.66,1.35-1.32,2.02-1.97Z"/>
  <path class="cls-3" d="M730.44,515.31c-.47,1.31-.56,3.02-1.46,3.86-8.08,7.54-16.31,14.92-24.49,22.36-9.94,6.64-19.68,13.61-29.91,19.77-5.15,3.1-11.18,4.72-16.82,7.02-.41-1.07-.82-2.15-1.22-3.22.06-.25.05-.5-.03-.74-2.05-5.6-4.11-11.2-6.16-16.8-.73-3.01-1.45-6.01-2.18-9.02,3.74-3.66,7.73-3.04,11.65-.46,4.38,2.88,8.13,2.77,11.92-1.25,1.31-1.39,3.73-1.89,5.75-2.41,7.16-1.85,16.18,1.45,20.68-7.62.07-.15.19-.27.29-.41,1.11-.75,2.23-1.5,3.98-2.68-1.67-.24-2.46-.35-3.25-.46,10.42-2.64,20.83-5.29,31.25-7.93Z"/>
  <path class="cls-7" d="M477.35,388.09c-.39.39-.78.78-1.17,1.17.39-.39.78-.78,1.17-1.17Z"/>
  <path class="cls-7" d="M479.31,386.23c-.37.35-.74.71-1.11,1.06.37-.35.74-.71,1.11-1.06Z"/>
  <path class="cls-7" d="M480.2,385c-.3.42-.6.84-.9,1.25.3-.42.6-.84.9-1.25Z"/>
  <path class="cls-8" d="M553.68,489.27c-3.28,2.77-6.35,5.86-9.93,8.15-1.43.92-4.48.85-5.92-.09-4.25-2.76-6.61-.95-8.98,2.43-.77,1.1-2.13,1.79-3.22,2.66-1.67-5.66-3.35-11.33-5.02-16.99.19-7.58.38-15.16.59-22.75.07-2.42-.41-5.07.41-7.22,2.03-5.28.62-9.67-2.43-13.89-1.26-1.74-2.97-3.23-3.89-5.13-2.31-4.78-6-6.03-10.87-5.02,3.01-2.32,6.03-4.65,9.04-6.97,4.94-.58,9.87-1.16,16.39-1.93.65,2.52,1.61,6.22,2.57,9.92.75,8.56,1.8,17.11,2.15,25.69.3,7.58,4.41,12.85,9.12,18.05,1.98,2.19,3.56,4.73,5.32,7.11-.81.71-1.61,1.42-2.31,2.28-.36-.11-.7-.45-1.02-.42-.34.03-.66.39-.98.61.35.41.7.82,1.06,1.23.28-.34.57-.68.94-1.41,1.85.52,3.82,1.2,5.79,1.88l1.2,1.81Z"/>
  <path class="cls-21" d="M532.42,432.45c-.96-3.7-1.92-7.4-2.57-9.92-6.51.77-11.45,1.35-16.38,1.93-1.98-1.54-3.85-3.26-5.97-4.58-7.4-4.61-11.58-3.35-15.98,4.63-1.64,1.13-3.3,2.23-4.92,3.39-3,2.16-5.98,4.36-8.96,6.54-4.33,3.02-8.66,6.03-12.99,9.05-4.13-6.34-3.63-12.95,2.22-18.57,5.92-5.68,12.4-10.77,18.54-16.23,1.28-1.13,2.15-2.72,3.22-4.1,1.34,0,2.67,0,4.01,0,3.75,2.61,7.22,6.03,11.38,7.49,1.99.7,5.34-2.24,7.99-3.68,5-2.73,12.5-.62,15.77,4.28.83,1.24,2.5,1.91,3.78,2.84.29,5.65.58,11.3.86,16.94Z"/>
  <path class="cls-7" d="M504.42,431.43c4.86-1.01,8.56.25,10.87,5.02.91,1.89,2.63,3.38,3.89,5.13,3.05,4.22,4.45,8.61,2.43,13.89-.82,2.14-.35,4.79-.41,7.22-.21,7.58-.39,15.16-.59,22.75-1.54-3.07-3.17-6.09-4.6-9.21-2.85-6.22-5.88-12.39-8.24-18.79-.94-2.57-1.08-5.99-.21-8.57,1.72-5.1,1.15-8.96-3.24-12.29-1.21-.92-1.8-2.63-2.68-3.98.93-.39,1.85-.77,2.78-1.16Z"/>
  <path class="cls-17" d="M504.42,431.43c-.93.39-1.85.77-2.78,1.16-1.72-1.45-3.4-2.93-5.15-4.34-1.62-1.3-3.31-2.51-4.97-3.75,4.4-7.98,8.57-9.24,15.98-4.63,2.12,1.32,3.99,3.05,5.97,4.58-3.01,2.32-6.03,4.65-9.04,6.97Z"/>
  <path class="cls-7" d="M531.55,415.5c-1.28-.93-2.95-1.6-3.78-2.84-3.27-4.89-10.77-7-15.77-4.28-2.65,1.44-5.99,4.38-7.99,3.68-4.16-1.45-7.63-4.88-11.38-7.49,8.7-7.49,17.45-14.93,26.05-22.52,2.54-2.24,4.67-4.92,6.99-7.4.6-.1,1.19-.2,1.79-.3,5.59,5.04,11.19,10.07,16.78,15.11-2.22,2.61-4.14,5.56-6.72,7.74-5.87,4.96-6.25,11.46-5.97,18.3Z"/>
  <path class="cls-4" d="M656.55,565.09c.41,1.07.81,2.15,1.22,3.22-.41-1.07-.81-2.15-1.22-3.22Z"/>
  <path class="cls-8" d="M672.48,326.62c3.13.2,6.81-1.08,8.32,3.47-2.4-2.15-6.98,1.53-8.32-3.46h0Z"/>
  <path class="cls-21" d="M654.22,325.87c-6.69-3.63-12.13.72-17.69,3.06-18.42,7.77-36.72,15.83-55.04,23.83-3.63,1.59-7.18,3.38-10.76,5.07-.47-.63-.95-1.26-1.42-1.89.41.25.82.51,1.23.76,11.33-17.01,22.66-34.03,34-51.04,6.32-6.67,12.65-13.34,18.97-20,3.36,3.86,6.51,2.49,9.77-.25,5.99-5.04,16.12-3.54,20.52,5.97.27.59.73,1.45.51,1.86-4.22,7.68,1.44,15.25.28,22.91-.25,1.64,1.05,3.46,1.16,5.22.06,1.05-.8,2.16-1.25,3.24-.14-.07-.29-.15-.43-.22.14.08.27.16.41.24l-.26,1.24Z"/>
  <path class="cls-21" d="M655.48,326.5c-.38-.24-.77-.47-1.15-.71.38.24.77.47,1.15.71Z"/>
  <path class="cls-25" d="M664.99,359.44c2.84.75,5.69,1.49,8.53,2.24.81.25,1.62.5,2.43.75l.31-.13s.22.25.22.25c-.02.33-.04.66-.06.98-1.02.11-2.04.22-3.56.38,1.9,1.77,3.42,4.14,3.66-.28.79-.07,1.58-.14,2.37-.22,3.84,1.76,7.69,3.53,11.53,5.29.01,1.62.03,3.24.04,4.86.33.33.66.66,1,.99,4.06-1.66,4.6,3.02,7.23,4.01,6.1,2.31,10.48,6.8,13.72,12.21,3.52,5.9,7.07,11.77,10.18,17.98,3.56,7.11,4.79,14.41,5.66,21.77,1.26,10.64.47,21.35-3.87,31.43-.42.97-1.72,1.57-2.39,2.15-.49,4.12-.98,8.26-1.47,12.4-.81,1.42-1.62,2.84-2.43,4.25-3.73-2.47-7.44-.89-7.57,3.39-.07,2.38-.3,3.94-3.12,4.67-4.77,1.24-10.08.9-14.15,4.51-.53.47-1.98.14-2.91-.13-3.79-1.08-7.49-2.68-11.34-3.27-1.98-.3-6.02.98-6.07,1.75-.43,6.46-4.88,4.49-8.44,4.57-4.74.11-9.72-.61-14.15.64-6.94,1.97-13.4,2.34-20.18-.28-2.45-.94-5.03-1.16-4.6-4.6.51-4.02-2.03-9.13,4.13-11.64.83,2.82,1.59,5.39,2.35,7.95.58.11,1.16.22,1.74.33,1.38-3.65,2.76-7.3,4.14-10.95.89,1.2,1.78,2.41,2.67,3.61.96.98,1.86,2.72,2.89,2.8,4.11.33,8.27.13,13.81.13-2.31-1.54-3.33-2.22-4.48-2.98,3.9-2.59,8.71-4.22,10.51-7.5,1.42-2.59,2.07-4.13,5-4.29.34-.02.53-1.17.95-1.67,1.66-1.95,3.31-3.91,5.1-5.74,3.88-3.99,7.82-7.92,11.78-11.83,3.98-3.93,7.44-8.89,12.19-11.36,4.19-2.18,5.97-4.41,6-8.69-4.91-5.47-9.82-10.93-14.71-16.4-2.42-2.71-4.56-1.73-6.75.37-10.24,9.82-20.52,19.6-30.78,29.4q-7.22,6.9-14.1-1.1c-.2-.23-.55-.33-.77-.54-6.61-6.23-13.46-12.22-19.72-18.78-5.32-5.58-7.43-5.96-13.17-.67-3.81,3.51-7.75,6.89-11.63,10.33.61-1.39,1.23-2.77,1.84-4.16.65-1.48,1.91-3,1.82-4.43-.36-5.33-1.55-10.62-1.7-15.95-.2-7,3.73-10.44,10.82-10.75,12.87-.57,25.73-1.29,38.6-2.03,1.28-.07,2.5-.82,3.79-1.07,6.45-1.28,12.92-3.48,19.37-3.4,4.28.05,7.62.42,10.59-3.12.98-1.17,2.88-1.52,4.27-2.4,1.08-.69,2.62-1.42,2.93-2.44,1.47-4.85.08-8.71-3.64-12.48-3.01-3.06-5.31-1.87-7.91-.46-5.69,3.08-10.51-.89-15.68-1.82-.57-.1-1.19-1.86-1.2-2.86-.04-5.89,4.52-5.53,8.43-5.99ZM668.73,364.21c.12-.28.39-.61.31-.81-.08-.2-.51-.26-.78-.38-.12.28-.39.61-.31.81.08.2.51.26.79.38ZM682.75,366.96c-.14-.05-.28-.13-.42-.13-.05,0-.09.23-.13.35.14.05.28.13.42.13.05,0,.09-.23.13-.35ZM717.19,476.61c-.04-.14-.05-.31-.14-.41-.03-.04-.24.06-.36.09.04.14.06.31.14.42.03.04.23-.06.36-.09ZM661.21,478.05c.14.05.28.13.42.13.05,0,.09-.23.13-.35-.14-.05-.28-.13-.42-.13-.05,0-.09.23-.13.35Z"/>
  <path class="cls-10" d="M637.89,477.71c-1.38,3.65-2.76,7.3-4.14,10.95-.58-.11-1.16-.22-1.74-.33-.76-2.56-1.52-5.12-2.35-7.95-6.16,2.51-3.62,7.63-4.13,11.64-.44,3.43,2.15,3.65,4.6,4.6,6.78,2.61,13.24,2.24,20.18.28,4.42-1.25,9.41-.54,14.15-.64,3.56-.08,8.01,1.89,8.44-4.57.05-.77,4.09-2.05,6.07-1.75,3.86.59,7.55,2.19,11.34,3.27.93.27,2.38.6,2.91.13,4.08-3.62,9.38-3.27,14.15-4.51,2.83-.73,3.05-2.29,3.12-4.67.13-4.28,3.85-5.86,7.57-3.39-.54.88-1.08,1.76-1.62,2.65-.43-.49-.85-.98-1.28-1.47-.23.82-.47,1.64-.7,2.47l-.1.11c-.12.07-.36.19-.35.21.09.21.21.41.33.61.15.18.31.35.48.51-1.39,1.62-2.78,3.25-4.17,4.87-1.32.51-2.67.94-3.91,1.6-.14.07.38,1.39.6,2.13-6.55,4.99-13.01,10.09-19.68,14.91-3.11,2.25-6.62,3.96-10.75,6.38,3.11,2.47,5.84,4.65,8.57,6.82.92.29,1.85.57,2.77.86,3.64-.05,7.28-.11,10.92-.16.79.11,1.58.22,3.25.46-1.75,1.18-2.86,1.93-3.94,2.74-.11-.19-.18-.43-.27-.44-.35-.04-.7,0-1.06.01.42.15.84.3,1.33.43-.13.08-.25.2-.32.35-4.5,9.07-13.52,5.77-20.68,7.62-2.02.52-4.44,1.02-5.75,2.41-3.79,4.02-7.53,4.13-11.92,1.25-3.93-2.58-7.91-3.2-11.65.46-1.72-4.94-3.71-9.81-5.08-14.85-.81-2.99-1.88-4.06-5.2-4.37-22.57-2.06-40.73-12.6-55.31-29.67-.19-.23-.19-.62-.27-.94,1.79-.09,3.58-.18,4.6-.23,1.22,1.71,1.93,2.88,2.81,3.9,1.1,1.27,2.34,2.42,3.51,3.62,1.06.85,2.92,1.05,4.57,1.74,3.08,1.29,4.76.89,4.74-2.87-.05-9.48.09-18.96-.14-28.43-.04-1.45-1.57-2.92-2.54-4.28-1.44-2.01-3.48-3.74-4.4-5.95-1.06-2.56-1.17-5.51-1.69-8.3-.19.41-.37.83-.56,1.24-2.82-1.2-6.23-1.8-8.27-3.8-1.38-1.36-1.22-4.7-1.08-7.11.26-4.65-2.33-7.85-5.9-9.21-3.63-1.38-4.53-3.85-5.37-6.81-1.13-4-2.13-8.03-3.19-12.04,6.13-18.53,18.31-31.99,35-41.62,18.52-10.68,38.55-12.49,59.3-9.79.45.06.86.44,1.28.67-3.92.46-8.47.09-8.43,5.99,0,1,.63,2.76,1.2,2.86,5.17.93,9.99,4.9,15.68,1.82,2.6-1.41,4.9-2.6,7.91.46,3.71,3.77,5.11,7.63,3.64,12.48-.31,1.02-1.84,1.76-2.93,2.44-1.39.88-3.29,1.23-4.27,2.4-2.96,3.54-6.3,3.17-10.59,3.12-6.44-.08-12.92,2.12-19.37,3.4-1.29.26-2.51,1-3.79,1.07-12.86.74-25.73,1.45-38.6,2.03-7.09.31-11.02,3.76-10.82,10.75.15,5.33,1.34,10.62,1.7,15.95.1,1.43-1.17,2.95-1.82,4.43-.61,1.39-1.22,2.77-1.84,4.16,1.3,1.88,2.6,3.77,3.9,5.65.78.35,1.55.71,2.33,1.06.32.06.53.24.63.56.67,1.81,1.34,3.61,2.01,5.42-.17.78-.34,1.57-.51,2.35.51-.12,1.01-.23,1.52-.35,1.91.33,3.82.66,5.73.99,9.87,9.75,19.75,19.49,29.62,29.24ZM575.46,420.65c1.52-5.92,1.18-6.91-2.2-7.61.68,2.36,1.35,4.68,2.2,7.61ZM574.15,410l1.85.22c-.1-1.76-.21-3.53-.31-5.29-.51.02-1.03.04-1.54.06v5.02Z"/>
  <path class="cls-3" d="M569.41,410.18c1.06,4.02,2.06,8.05,3.19,12.04.84,2.96,1.74,5.43,5.37,6.81,3.57,1.36,6.17,4.56,5.9,9.21-.14,2.42-.3,5.75,1.08,7.11,2.04,2,5.45,2.6,8.27,3.8.19-.41.37-.83.56-1.24.52,2.78.64,5.73,1.69,8.3.91,2.21,2.95,3.94,4.4,5.95.98,1.36,2.51,2.83,2.54,4.28.23,9.47.08,18.95.14,28.43.02,3.76-1.66,4.16-4.74,2.87-1.65-.69-3.51-.89-4.57-1.74-1.18-1.2-2.42-2.35-3.51-3.62-.88-1.02-1.6-2.19-2.81-3.9-1.02.05-2.81.14-4.6.23,0,0-.03-.09-.02-.09-.13-3.1-.31-6.15-4.56-6.25-8.15-10.98-11.64-23.72-12.92-36.97-.93-9.68-.8-19.53,2.69-28.92.32-1.06.64-2.12.96-3.18.31-1.04.62-2.08.94-3.12Z"/>
  <path class="cls-3" d="M690.47,373.56c-.01-1.62-.03-3.24-.04-4.86,21.95,12.64,34.94,31.55,38.97,56.46,2.92,18.06.28,35.3-8.88,51.34.49-4.14.98-8.28,1.47-12.4.67-.58,1.97-1.18,2.39-2.15,4.35-10.08,5.13-20.79,3.87-31.43-.87-7.37-2.1-14.66-5.66-21.77-3.11-6.2-6.65-12.08-10.18-17.98-3.23-5.41-7.62-9.91-13.72-12.21-2.63-1-3.17-5.67-7.23-4.01-.33-.33-.66-.66-1-.99Z"/>
  <path class="cls-21" d="M552.48,487.46c-1.97-.68-3.93-1.36-5.9-2.03.81-.71,1.61-1.42,2.42-2.13,1.16,1.39,2.32,2.77,3.48,4.16Z"/>
  <path class="cls-25" d="M707.36,494.43c-.22-.74-.74-2.05-.6-2.13,1.23-.66,2.59-1.1,3.91-1.6-1.1,1.24-2.21,2.49-3.31,3.73Z"/>
  <path class="cls-10" d="M577.74,482.37c4.24.1,4.43,3.15,4.56,6.25-.96-1.28-1.92-2.55-2.88-3.83-.32-.43-.64-.87-.96-1.3-.24-.37-.48-.75-.72-1.12Z"/>
  <path class="cls-25" d="M714.49,484.39c.23-.82.47-1.64.7-2.47.43.49.85.98,1.28,1.47-.26.38-.52.77-.78,1.15-.4-.05-.8-.1-1.19-.16Z"/>
  <path class="cls-3" d="M688.27,523.4c-.92-.29-1.85-.57-2.77-.86.92.29,1.85.57,2.77.86Z"/>
  <path class="cls-10" d="M568.47,413.29c-.32,1.06-.64,2.12-.96,3.18.32-1.06.64-2.12.96-3.18Z"/>
  <path class="cls-10" d="M676.43,363.52c.02-.33.04-.66.06-.98.81.29,1.61.58,2.42.87-.79.07-1.58.14-2.37.22l-.1-.1Z"/>
  <path class="cls-10" d="M675.96,362.42c-.81-.25-1.62-.5-2.43-.75.81.25,1.62.5,2.43.75Z"/>
  <path class="cls-3" d="M578.46,483.49c.32.43.64.87.96,1.3-.32-.43-.64-.87-.96-1.3Z"/>
  <path class="cls-10" d="M714.49,484.39c.4.05.8.1,1.19.16-.28.42-.56.85-.84,1.27-.17-.16-.32-.33-.47-.51.05-.27.05-.54.03-.81l.1-.11Z"/>
  <path class="cls-21" d="M546.8,485.74c-.49.58-.77.92-1.06,1.25-.35-.41-.7-.82-1.06-1.23.33-.22.64-.58.98-.61.31-.02.65.32,1.13.58Z"/>
  <path class="cls-8" d="M654.48,324.63c-.14-.08-.27-.16-.41-.24.14.07.29.15.43.22,0,0-.02.02-.02.02Z"/>
  <path class="cls-3" d="M640.56,481.32c5.18,1.66,9.31.46,13.33-3.47,14.79-14.42,29.86-28.55,44.85-42.76,1.79-1.7,3.71-3.27,5.57-4.89-.03,4.28-1.81,6.51-6,8.69-4.75,2.47-8.21,7.43-12.19,11.36-3.96,3.91-7.9,7.85-11.78,11.83-1.78,1.83-3.44,3.79-5.1,5.74-.42.49-.61,1.65-.95,1.67-2.93.17-3.58,1.71-5,4.29-1.8,3.28-6.62,4.91-10.51,7.5,1.15.76,2.17,1.44,4.48,2.98-5.55,0-9.7.19-13.81-.13-1.03-.08-1.93-1.82-2.89-2.8Z"/>
  <path class="cls-10" d="M676.53,363.63c-.24,4.42-1.76,2.04-3.66.28,1.52-.16,2.54-.27,3.56-.38,0,0,.1.1.1.1Z"/>
  <path class="cls-10" d="M668.73,364.21c-.28-.12-.71-.18-.78-.38-.08-.2.19-.54.31-.81.28.12.71.18.78.38.08.2-.19.54-.31.81Z"/>
  <path class="cls-10" d="M682.75,366.96c-.04.12-.08.35-.13.35-.14,0-.28-.08-.42-.13.04-.12.08-.35.13-.35.14,0,.28.08.42.13Z"/>
  <path class="cls-10" d="M717.19,476.61c-.12.03-.33.13-.36.09-.09-.11-.1-.27-.14-.42.13-.03.33-.13.36-.09.09.11.1.27.14.41Z"/>
  <path class="cls-3" d="M661.21,478.05c.04-.12.08-.35.13-.35.14,0,.28.08.42.13-.04.12-.08.35-.13.35-.14,0-.28-.08-.42-.13Z"/>
  <path class="cls-10" d="M690.47,373.56c.33.33.66.66,1,.99-.33-.33-.66-.66-1-.99Z"/>
  <path class="cls-17" d="M599.53,440.06c2.91,2.8,5.83,5.61,8.74,8.41-1.91-.33-3.82-.66-5.73-.99,0,0,0-.01,0-.01-.33-.66-.66-1.33-.99-1.99-.67-1.81-1.34-3.61-2.01-5.42Z"/>
  <path class="cls-3" d="M575.46,420.65c-.85-2.94-1.52-5.26-2.2-7.61,3.37.7,3.72,1.7,2.2,7.61Z"/>
  <path class="cls-3" d="M574.15,410v-5.02c.51-.02,1.03-.04,1.54-.06.1,1.76.21,3.53.31,5.29l-1.85-.22Z"/>
  <path class="cls-17" d="M596.58,438.44c.78.36,1.55.71,2.33,1.06-.78-.36-1.55-.71-2.33-1.06Z"/>
  <path class="cls-17" d="M602.54,447.48c-.5.12-1.01.23-1.52.35.17-.78.34-1.57.51-2.35.33.66.66,1.33.99,1.99h0Z"/>
  <path class="cls-3" d="M698.53,526.5c-.52-.18-.94-.33-1.36-.48.35,0,.71-.05,1.06-.01.09,0,.16.25.31.49Z"/>
  <path class="cls-25" d="M714.39,484.5c.03.27.02.54-.03.81-.11-.2-.24-.4-.33-.61,0-.02.23-.14.35-.21Z"/>
  <path class="cls-10" d="M602.53,447.47c-.33-.66-.66-1.33-.99-1.99.33.66.66,1.33.99,1.99Z"/>
</svg>